<svg width="41" height="36" viewBox="0 0 41 36" fill="none" xmlns="http://www.w3.org/2000/svg">
<path d="M35.2499 0.0337501C35.3791 0.0396909 35.5083 0.0456316 35.6414 0.0517524C37.2686 0.138267 38.9811 0.270154 40.1589 1.21913C41.1929 2.27125 41.0722 3.55225 40.8433 4.80165C40.4268 6.2382 39.5045 7.29285 38.0875 8.2718C37.9119 8.4055 37.9119 8.4055 37.7328 8.5419C37.8142 8.6124 37.8955 8.68291 37.9794 8.75555C39.9944 10.5962 40.0465 12.7282 39.861 15.0243C39.4572 17.5288 37.1239 20.1055 35.0587 22.0021C34.5973 22.4283 34.1656 22.8709 33.7327 23.314C33.6481 23.3861 33.5635 23.4582 33.4763 23.5324C33.3593 23.5324 33.2422 23.5324 33.1216 23.5324C33.0844 23.6061 33.0471 23.6797 33.0087 23.7556C32.6782 24.189 32.2209 24.4927 31.7361 24.8239C31.6334 24.8948 31.5307 24.9657 31.4249 25.0388C31.1053 25.2583 30.7838 25.4761 30.4614 25.6932C30.3653 25.758 30.2693 25.8228 30.1703 25.8895C28.7971 26.8089 27.3624 27.6512 25.8735 28.4589C25.6093 28.6025 25.3459 28.7469 25.083 28.892C23.1672 29.949 21.2349 30.9022 19.1449 31.746C18.7583 31.9047 18.3773 32.0692 17.9969 32.2363C8.47622 36.4041 8.47622 36.4041 4.24666 35.5519C3.20557 35.2395 2.37026 34.6528 1.88498 33.8843C1.74933 33.5854 1.64127 33.2949 1.55314 32.9859C1.52114 32.881 1.48913 32.776 1.45615 32.6678C0.848316 29.9665 2.11289 27.1366 3.68136 24.7479C3.48863 24.7205 3.48863 24.7205 3.29202 24.6925C2.23087 24.5126 1.52073 24.3425 0.869372 23.6606C-0.162371 22.3226 -0.176354 20.9605 0.311686 19.4809C2.01191 15.2895 5.2144 11.1986 9.7113 8.40685C9.84664 8.30379 9.98198 8.20073 10.1214 8.09455C16.4233 3.29574 26.2119 -0.393916 35.2499 0.0337501ZM14.3224 7.32645C14.2263 7.38364 14.1302 7.44082 14.0311 7.49974C13.0532 8.08464 12.1426 8.69479 11.2777 9.37488C10.9714 9.60812 10.6553 9.81803 10.3209 10.0274C6.60484 12.4164 3.07539 17.0539 2.56737 20.7935C2.53271 21.5237 2.63597 22.0869 3.1493 22.7221C3.5851 23.0402 4.02654 23.3262 4.56811 23.5324C5.42097 23.316 5.75769 22.8057 6.16427 22.2241C6.62787 21.6395 6.62787 21.6395 7.22838 21.5067C7.40396 21.5067 7.57954 21.5067 7.76043 21.5067C7.6691 22.1153 7.37597 22.3897 6.87368 22.8572C6.5527 23.2522 6.27054 23.6616 5.98692 24.0726C5.88953 24.2107 5.79214 24.3487 5.6918 24.491C3.97751 26.9954 2.42672 30.0921 3.51994 32.9147C3.79877 33.5043 4.11321 33.823 4.84522 34.1085C9.475 34.8136 14.7135 31.8652 18.4303 30.0371C18.6684 29.9222 18.9092 29.8103 19.1514 29.7003C19.2816 29.6408 19.4118 29.5813 19.546 29.52C19.666 29.4661 19.7861 29.4122 19.9099 29.3567C19.9974 29.3065 20.0849 29.2563 20.175 29.2045C20.175 29.1154 20.175 29.0263 20.175 28.9344C20.3323 28.9038 20.4896 28.8732 20.6516 28.8416C21.3352 28.6353 21.6143 28.3892 22.1259 27.9891C22.5293 27.7074 22.9423 27.4345 23.3562 27.1619C23.4723 27.0852 23.5884 27.0086 23.708 26.9296C24.4755 26.4267 25.2592 25.9445 26.0609 25.4738C27.0633 24.8848 28.0002 24.2572 28.9234 23.5979C29.3171 23.3191 29.7174 23.0528 30.1288 22.7897C31.4934 21.8861 32.6398 20.8044 33.7687 19.7336C34.0634 19.4596 34.3605 19.193 34.6693 18.9286C36.4634 17.3835 38.055 15.6791 38.0875 13.5387C37.927 11.6092 37.362 10.255 35.6046 8.812C34.5116 8.10585 33.8258 8.06391 32.4122 8.13675C30.0256 8.42891 27.7423 9.23862 25.6729 10.1625C26.1952 10.4548 26.1952 10.4548 26.8368 10.5845C29.0325 11.1989 30.9761 12.8816 32.0818 14.3976C32.2734 14.844 32.2211 15.1149 32.0575 15.5645C31.5632 16.0223 31.2242 16.2742 30.4614 16.3748C27.9139 16.5371 26.0654 15.9501 24.0767 14.7542C23.26 14.1633 22.5238 13.5427 22.1259 12.7284C22.1259 12.5502 22.1259 12.3719 22.1259 12.1882C23.098 12.4711 23.8365 12.8332 24.6531 13.3193C26.0197 14.1092 27.5666 14.9173 29.3418 14.8977C29.4852 14.8965 29.6285 14.8953 29.7762 14.894C29.8853 14.8924 29.9943 14.8909 30.1067 14.8892C30.1067 14.0569 28.9953 13.3824 28.2798 12.8034C27.3041 12.0859 26.3214 11.6596 25.0681 11.2687C24.6088 11.1078 24.6088 11.1078 24.4314 10.8377C23.5712 11.0612 22.8579 11.4228 22.1037 11.8C21.9693 11.8668 21.8349 11.9337 21.6965 12.0026C18.5113 13.597 15.3416 15.4088 12.6819 17.4974C11.887 18.1198 11.0234 18.6073 10.066 19.0758C10.5258 19.4259 10.8489 19.4256 11.4848 19.5147C12.6587 19.7118 13.5313 20.0254 14.4998 20.5613C14.6255 20.6308 14.7513 20.7003 14.8808 20.7718C16.6996 21.8782 17.5997 23.4248 17.884 25.1472C17.8657 25.4935 17.7794 25.6809 17.5147 25.9633C16.1959 26.3474 14.8353 25.9689 13.613 25.5582C11.5142 24.764 9.59017 23.5711 8.65619 21.8765C8.55851 21.6164 8.55851 21.6164 8.46984 21.2366C9.26449 21.1864 9.26449 21.1864 9.67051 21.4076C9.7649 21.4864 9.85929 21.5653 9.95654 21.6465C10.0637 21.7331 10.1709 21.8198 10.2813 21.909C10.3931 22.0019 10.505 22.0947 10.6202 22.1904C12.1992 23.4433 13.7264 24.228 15.9186 24.7479C15.7016 23.4652 14.8037 22.409 13.5853 21.5257C12.7441 21.0435 11.8129 20.7113 10.8599 20.3762C10.1589 20.1261 9.78848 19.9743 9.35659 19.4809C9.35659 19.5701 9.35659 19.6592 9.35659 19.751C9.00544 19.7956 8.65428 19.8402 8.29249 19.8861C8.34419 18.3112 11.2824 16.7472 12.6659 15.7265C13.4812 15.143 14.3508 14.6264 15.2512 14.122C15.5832 13.9329 15.9073 13.7375 16.231 13.5403C20.6453 10.8713 26.0653 8.04712 31.7028 7.1914C31.8405 7.16772 31.9781 7.14405 32.1199 7.11965C33.7657 6.90737 35.6458 7.30634 37.0234 8.0017C37.0343 7.92649 37.0453 7.85129 37.0566 7.7738C37.2007 7.4615 37.2007 7.4615 37.5998 7.17452C38.8851 6.15123 39.3308 4.82393 39.3282 3.4311C39.2717 2.8077 39.2169 2.38424 38.6195 1.92445C30.7404 -0.678919 20.3714 3.71189 14.3224 7.32645Z" fill="white"/>
<path d="M18.3193 15C20.1728 15.0354 21.8559 16.3102 23.1454 17.3185C24.1917 18.2695 24.8869 19.0832 25 20.3982C24.8654 20.8553 24.7892 21.0334 24.3045 21.2819C24.2002 21.3137 24.0959 21.3454 23.9884 21.3782C23.9884 21.4705 23.9884 21.5629 23.9884 21.6581C22.8591 22.071 21.8728 22.1167 20.7047 21.7582C19.4214 21.2487 18.3013 20.6319 17.2445 19.8383C17.1212 19.7473 16.998 19.6564 16.871 19.5627C15.9422 18.8388 15.1147 18.0455 15 16.9598C15.0174 16.8472 15.0348 16.7346 15.0527 16.6186C15.4393 16.5869 15.4393 16.5869 15.8957 16.6186C16.1888 16.834 16.1888 16.834 16.4542 17.1261C16.9657 17.6537 17.4982 18.0272 18.1711 18.4067C18.2548 18.4634 18.3384 18.52 18.4247 18.5784C18.4247 18.6708 18.4247 18.7632 18.4247 18.8584C18.523 18.899 18.6214 18.9395 18.7227 18.9814C19.0589 19.1216 19.3924 19.2653 19.7254 19.4107C19.9627 19.5124 20.2 19.6141 20.4373 19.7158C20.5559 19.768 20.6744 19.8201 20.7966 19.8738C21.4336 20.1445 21.904 20.3324 22.6396 20.2583C22.584 18.9659 21.8455 18.2974 20.7429 17.4323C19.8576 16.8003 18.8856 16.391 17.7944 16.0576C17.4131 15.9187 17.4131 15.9187 17.255 15.6387C17.2515 15.5463 17.2481 15.4539 17.2445 15.3587C17.6448 15.0263 17.7679 15.023 18.3193 15Z" fill="white"/>
</svg>
