<svg width="304" height="260" viewBox="0 0 304 260" fill="none" xmlns="http://www.w3.org/2000/svg">
<path d="M52.1758 10.848C54.0025 12.5289 55.4916 14.2487 57 16.2191C57.5337 16.8933 58.0673 17.5675 58.6172 18.2621C64.7236 26.8871 74 42.6126 74 53.2191C78.6244 53.2453 83.2488 53.2626 87.8733 53.274C89.4225 53.2788 90.9716 53.2855 92.5208 53.2945C101.853 53.3475 111.177 53.2579 120.505 52.9986C152.89 52.107 185.264 52.0313 217.658 52.034C223.862 52.0336 230.065 52.0219 236.269 52.008C242.342 51.995 248.415 51.9896 254.488 51.9902C258.078 51.9905 261.667 51.9878 265.256 51.9771C269.222 51.9655 273.188 51.9701 277.155 51.9762C278.313 51.9706 279.472 51.9649 280.666 51.9591C296.624 52.0207 296.624 52.0207 302.688 55.9691C304.508 59.0895 303.706 60.7107 303 64.2191C302.798 65.3459 302.595 66.4727 302.387 67.6336C300.786 76.0017 298.74 84.0123 296 92.0941C295.588 93.323 295.177 94.5519 294.753 95.818C289.608 110.947 283.668 125.796 277.777 140.646C273.766 150.801 269.928 160.906 266.926 171.412C265.825 175.157 264.978 177.673 262 180.219C258.985 181.35 258.168 181.275 255 180.219C252.721 180.203 250.441 180.254 248.164 180.34C247.489 180.364 246.814 180.387 246.118 180.412C243.953 180.488 241.789 180.572 239.625 180.657C236.805 180.763 233.984 180.865 231.164 180.965C230.463 180.99 229.761 181.016 229.038 181.042C224.931 181.181 220.836 181.231 216.727 181.196C208.647 181.158 200.594 181.609 192.527 182.017C165.696 183.366 138.871 184.478 112 184.219C111.859 185.498 111.719 186.777 111.574 188.094C111.297 190.613 111.118 192.02 109.812 194.219C106.981 195.782 105.18 195.728 102 195.219C93.0837 188.85 91.6506 175.481 89.2516 165.45C88.2894 161.431 87.303 157.418 86.3125 153.407C86.1166 152.613 85.9207 151.819 85.7188 151.002C84.0525 144.311 82.177 137.695 80.1875 131.094C78.2184 124.546 76.4113 118.035 75 111.344C65.105 59.6566 65.105 59.6566 36.6523 17.7621C27.384 12.3703 17.5398 11.0588 7.125 12.9066C4 13.2191 4 13.2191 1.5625 11.7816C1.04688 11.266 0.53125 10.7503 0 10.2191C0.4375 7.9691 0.4375 7.9691 2 5.2191C17.3192 -4.58519 38.5415 0.640654 52.1758 10.848ZM261.52 65.5753C242.426 66.273 223.35 66.3529 204.245 66.3205C199.818 66.3141 195.391 66.3136 190.964 66.3125C182.639 66.3094 174.314 66.3012 165.989 66.2911C156.486 66.2798 146.984 66.2744 137.482 66.2694C117.988 66.2591 98.4939 66.2415 79 66.2191C79.3068 67.6371 79.6159 69.0545 79.926 70.4718C80.0979 71.2612 80.2698 72.0506 80.4469 72.8639C81.2578 76.3167 82.3342 79.6633 83.4375 83.0316C85.2344 88.6481 86.8175 94.2613 88.1992 99.9964C89.1699 103.903 90.2324 107.779 91.3125 111.657C91.5254 112.421 91.7382 113.185 91.9575 113.973C93.0897 118.019 94.2397 122.059 95.4102 126.094C99.5534 140.398 103.318 154.79 107 169.219C113.911 169.245 120.822 169.262 127.734 169.274C130.071 169.279 132.409 169.286 134.746 169.295C147.179 169.34 159.577 169.255 172 168.719C187.792 168.048 203.574 168.104 219.376 168.15C223.3 168.161 227.223 168.165 231.146 168.17C238.764 168.181 246.382 168.198 254 168.219C254.312 167.12 254.623 166.02 254.944 164.887C257.35 156.493 259.927 148.303 263.25 140.219C266.508 132.114 269.545 123.962 272.438 115.719C275.738 106.361 279.484 97.2897 283.529 88.2306C286.869 80.695 289.63 73.1139 292 65.2191C281.83 65.1091 271.685 65.2004 261.52 65.5753Z" fill="#44624A"/>
<path d="M249.035 94.3326C257.084 102.061 261.795 109.041 262.25 120.469C262.082 128.961 259.043 135.405 253.555 141.848C246.3 148.582 237.148 152.229 227.281 152.493C221.241 151.989 215.713 150.162 210 148.219C207.649 147.461 205.294 146.711 202.938 145.969C201.404 145.467 201.404 145.467 199.84 144.954C197.089 144.242 194.825 144.074 192 144.219C192.66 144.879 193.32 145.539 194 146.219C194.375 148.657 194.375 148.657 194 151.219C190.431 154.545 187.157 155.064 182.422 155.415C180 155.219 180 155.219 176.813 153.094C175 150.219 175 150.219 175.063 147.532C176 145.219 176 145.219 178 143.219C167.262 142.326 157.336 144.252 146.86 146.441C128.767 150.116 128.767 150.116 121.563 146.094C116.219 142.149 113.973 138.056 112.625 131.594C111.054 120.132 114.052 108.13 120.813 98.6881C122.467 96.7302 124.053 94.8867 126 93.2193C126.66 93.2193 127.32 93.2193 128 93.2193C128 92.5593 128 91.8993 128 91.2193C128.66 91.2193 129.32 91.2193 130 91.2193C130 90.5593 130 89.8993 130 89.2193C132.372 87.9217 134.747 86.6312 137.125 85.3443C137.79 84.9795 138.455 84.6147 139.141 84.2389C145.736 80.6827 151.523 78.9126 159.063 78.5943C159.841 78.5578 160.62 78.5213 161.422 78.4837C227.326 75.6959 227.326 75.6959 249.035 94.3326Z" fill="#44624A"/>
<path d="M115.19 196.106C115.92 196.106 116.649 196.106 117.4 196.107C119.824 196.109 122.248 196.119 124.672 196.129C126.383 196.133 128.095 196.137 129.806 196.141C146.943 196.187 164.079 196.365 181.215 196.591C185.486 196.648 189.758 196.697 194.029 196.746C197.39 196.785 200.752 196.828 204.113 196.872C205.69 196.892 207.267 196.911 208.844 196.928C216.273 197.011 223.644 197.096 231.02 198.079C233.318 198.324 233.318 198.324 236.812 197.532C243.66 196.444 251.773 199.562 257.562 203.157C262.351 207.208 266.487 212.201 267.305 218.605C267.44 221.399 267.458 224.172 267.438 226.969C267.457 227.908 267.477 228.846 267.498 229.813C267.492 237.905 265.495 244.477 261 251.219C260.34 251.219 259.68 251.219 259 251.219C259 251.879 259 252.539 259 253.219C247.644 260.467 233.973 260.601 220.898 258.789C211.822 256.455 203.689 250.443 198.926 242.407C197.813 239.777 197.7 237.757 197.688 234.907C197.671 234.003 197.654 233.099 197.637 232.168C198.09 228.492 199.499 225.588 201 222.219C194.077 221.933 187.153 221.649 180.23 221.365C177.874 221.268 175.517 221.171 173.161 221.074C169.778 220.934 166.395 220.795 163.012 220.657C161.955 220.613 160.899 220.569 159.811 220.524C158.83 220.484 157.849 220.444 156.839 220.403C155.975 220.367 155.111 220.332 154.221 220.295C152.481 220.236 150.741 220.219 149 220.219C148.961 221.18 148.961 221.18 148.922 222.161C148.334 231.13 145.531 236.355 139.047 242.52C128.759 251.061 118.27 254.363 105 253.219C98.4439 252.22 94.2856 250.391 90.1562 245.133C86.0942 238.409 86.0137 231.669 87.6875 224.118C89.477 218.227 91.6918 213.6 95.7305 208.938C97.1253 207.288 97.1253 207.288 97.4648 205.2C98.1646 202.61 99.3205 201.718 101.375 200.032C101.981 199.522 102.587 199.013 103.211 198.489C106.975 195.818 110.781 196.082 115.19 196.106ZM109 211.219C108.01 212.704 108.01 212.704 107 214.219C108.65 213.559 110.3 212.899 112 212.219C111.01 211.889 110.02 211.559 109 211.219ZM115 225.219C116.186 228.594 117.276 230.866 120 233.219C122.411 232.255 123.774 231.531 125.312 229.407C126.17 226.677 125.756 224.942 125 222.219C120.727 221.853 118.512 222.811 115 225.219ZM235 229.219C232.934 231.209 232.934 231.209 232 233.219C237.261 233.535 240.446 232.885 245 230.219C245 229.559 245 228.899 245 228.219C245.99 227.889 246.98 227.559 248 227.219C243.215 225.617 239.433 227.137 235 229.219Z" fill="#44624A"/>
<path d="M234 112.219C236.798 113.43 238.834 115.053 241 117.219C241.407 120.88 241.5 122.581 239.188 125.532C234.662 129.022 229.478 128.735 224 128.219C221.52 127.055 219.906 126.125 218 124.219C217.307 117.175 217.307 117.175 219.813 113.719C224.539 111.495 228.867 111.445 234 112.219Z" fill="#F1F1F1"/>
<path d="M147.937 101.844C151 102.219 151 102.219 153.937 104.282C156 107.219 156 107.219 156.187 110.782C155 114.219 155 114.219 152.562 116.657C147.904 118.7 144.012 119.05 139 118.219C136.312 116.657 136.312 116.657 135 114.219C134.937 110.719 134.937 110.719 136 107.219C139.8 103.316 142.739 102.508 147.937 101.844Z" fill="#EEEEEE"/>
<path d="M150 108.219C150.625 110.094 150.625 110.094 151 112.219C149 114.219 149 114.219 147.055 114.414C145.036 114.349 143.018 114.284 141 114.219C140.67 112.569 140.34 110.919 140 109.219C143.473 108.061 146.361 108.15 150 108.219Z" fill="#FCC758"/>
<path d="M228.312 116.969C231.466 117.263 232.74 118.043 235 120.219C235 120.879 235 121.539 235 122.219C231.7 122.219 228.4 122.219 225 122.219C225 117.327 225 117.327 228.312 116.969Z" fill="#FCC758"/>
</svg>
