<svg width="31" height="44" viewBox="0 0 31 44" fill="none" xmlns="http://www.w3.org/2000/svg">
<path d="M13.8111 14.008C17.1373 13.9147 21.7077 14.631 24.3269 16.7053C24.8945 17.3322 25.115 18.0053 25.0441 18.819C24.9032 19.336 24.6817 19.7905 24.3955 20.2523C24.2363 20.607 24.3246 20.8488 24.4337 21.2107C24.5847 21.1643 24.7358 21.1179 24.8915 21.07C26.6129 20.9221 28.0809 21.1687 29.4606 22.1692C29.6213 22.3141 29.7774 22.4636 29.928 22.6176C30.0015 22.6885 30.0751 22.7595 30.1509 22.8325C31.0426 23.8802 31.0732 25.5179 30.9438 26.7922C30.5334 28.6751 29.4768 30.074 27.8217 31.2125C26.2245 32.1872 23.9866 33.2048 22.0299 33.1783C21.9079 33.177 21.7859 33.1758 21.6603 33.1744C21.5222 33.172 21.5222 33.172 21.3813 33.1695C21.3496 33.3148 21.3179 33.46 21.2853 33.6097C20.6604 36.3804 19.9042 39.2918 18.2418 41.7022C18.0063 42.0418 18.0063 42.0418 17.8197 42.4722C17.3474 43.2254 16.4515 43.3659 15.5817 43.5807C13.9614 43.9576 12.3742 44.0386 10.7074 43.9852C10.5521 43.9804 10.3969 43.9757 10.2369 43.9708C8.69532 43.8972 7.01224 43.7162 5.81405 42.7365C5.50181 42.3927 5.26466 42.0302 5.03187 41.6374C4.96717 41.5315 4.90247 41.4256 4.83581 41.3164C4.2199 40.2803 3.7728 39.2138 3.37214 38.0937C3.32536 37.9675 3.27859 37.8413 3.2304 37.7113C2.46107 35.6349 1.8659 33.5515 1.35559 31.4097C1.2253 30.8769 1.08751 30.346 0.946914 29.8154C0.910248 29.677 0.910248 29.677 0.872842 29.5357C0.753767 29.0869 0.633997 28.6382 0.513758 28.1897C-0.0124907 26.2048 -0.0124907 26.2048 0.00496394 25.1589C0.00702967 24.9959 0.00702967 24.9959 0.00913713 24.8297C0.0109078 24.7497 0.0126784 24.6697 0.0145027 24.5873C0.467783 24.5177 0.467783 24.5177 0.930221 24.4466C1.57196 25.315 1.96232 26.158 2.31334 27.1549C2.39953 27.3955 2.39953 27.3955 2.48746 27.6408C3.04235 29.2283 3.50593 30.8375 3.97308 32.4485C4.64097 34.7501 5.3439 37.02 6.26438 39.2486C6.40869 39.6025 6.54053 39.9583 6.67075 40.3167C6.87072 40.8208 7.08085 41.2202 7.49287 41.611C8.17566 41.8693 8.80773 41.9 9.53378 41.8946C9.99023 41.8921 10.4449 41.9051 10.9012 41.9182C13.8321 42.0903 13.8321 42.0903 16.4563 41.1543C16.8257 40.741 16.9604 40.4543 17.1079 39.9403C17.3022 39.2816 17.5209 38.6377 17.7643 37.9931C18.196 36.8216 18.5321 35.6306 18.8641 34.4323C19.0443 33.7823 19.2272 33.1329 19.4103 32.4836C19.4473 32.3522 19.4844 32.2208 19.5225 32.0854C19.8881 30.7926 20.2744 29.5053 20.6659 28.2189C21.1633 26.5828 21.6476 24.9446 22.1056 23.2986C22.3132 22.5535 22.5334 21.8117 22.7548 21.07C22.6392 21.1126 22.5235 21.1553 22.4043 21.1992C19.071 22.3289 15.4314 22.5934 11.9205 22.9444C11.4016 22.9968 10.8838 23.0531 10.3663 23.1169C9.18326 23.2625 8.0208 23.3678 6.82516 23.3563C6.67749 23.3553 6.52983 23.3544 6.37769 23.3534C5.4265 23.341 4.48114 23.3009 3.53429 23.2156C3.4271 23.2069 3.3199 23.1982 3.20946 23.1893C2.20927 23.0821 1.43111 22.716 0.63452 22.1692C0.201571 21.6249 0.12949 21.1745 0.167122 20.5073C0.444796 19.5017 1.23613 18.8492 1.99856 18.1155C2.12604 17.9822 2.12604 17.9822 2.2561 17.8462C4.95777 15.1191 10.0207 14.2088 13.8111 14.008ZM2.89699 19.3476C2.47756 19.8071 2.22981 20.2266 1.99856 20.7886C2.04892 20.9279 2.09929 21.0672 2.15118 21.2107C2.403 21.2571 2.65482 21.3036 2.91428 21.3514C2.94261 21.2363 2.94261 21.2363 2.97151 21.1189C3.40117 19.6708 4.46869 18.7932 5.83969 18.0446C9.538 16.2436 14.6253 16.3575 18.5638 17.3961C20.0432 17.8348 20.7871 18.4996 21.6865 19.6631C22.5214 19.4284 22.5214 19.4284 23.2127 18.9596C23.3901 18.6229 23.3901 18.6229 23.3653 18.2562C22.8903 17.6967 22.2794 17.4583 21.5816 17.201C21.4675 17.1585 21.3534 17.1161 21.2359 17.0723C15.2089 14.9061 7.62231 14.8274 2.89699 19.3476ZM24.281 22.4769C24.1803 22.9412 24.0796 23.4055 23.9758 23.8839C24.1912 23.907 24.1912 23.907 24.411 23.9306C24.601 23.9529 24.7911 23.9752 24.9869 23.9982C25.1746 24.0194 25.3623 24.0406 25.5556 24.0625C26.5307 24.2424 27.1319 24.6134 27.7913 25.2908C28.1382 25.9303 28.0611 26.8744 27.8557 27.5512C27.0171 29.0656 25.1456 29.878 23.5179 30.4964C23.0975 30.6201 22.6866 30.7283 22.2546 30.8107C22.1679 30.8463 22.0811 30.8818 21.9917 30.9184C21.867 31.2021 21.867 31.2021 21.8391 31.4812C24.1993 30.8771 27.1994 30.0839 28.617 28.0821C29.2989 26.8046 29.3034 25.3737 28.8596 24.0245C28.4261 23.249 27.7415 22.8572 26.8672 22.5676C26.0122 22.3951 25.1506 22.4354 24.281 22.4769ZM23.6706 25.2908C23.5173 25.8006 23.3649 26.3107 23.2127 26.8208C23.169 26.9661 23.1253 27.1113 23.0803 27.261C23.039 27.3997 22.9977 27.5385 22.9551 27.6814C22.9168 27.8096 22.8784 27.9378 22.8389 28.0699C22.7427 28.3773 22.7427 28.3773 22.7548 28.6674C24.0692 28.3601 25.3478 27.7659 26.1125 26.6977C26.2898 26.3609 26.2898 26.3609 26.2651 25.9942C26.0252 25.5611 26.0252 25.5611 25.502 25.2908C24.8862 25.2318 24.2873 25.25 23.6706 25.2908Z" fill="white"/>
<path d="M12.7137 0.0929061C12.8775 0.37774 12.8775 0.37774 13 0.647411C12.9236 0.696196 12.8472 0.74498 12.7685 0.795243C10.3954 2.19845 10.3954 2.19845 8.70538 4.2517C8.79211 4.26367 8.87884 4.27564 8.9682 4.28798C10.1047 4.47254 11.1412 4.77883 11.9442 5.61197C12.1837 6.14947 12.2507 6.59232 12.1411 7.16285C11.7819 8.01779 11.281 8.43374 10.4232 8.82636C9.74506 9.0303 9.01238 9.08391 8.34749 8.82636C8.2412 8.75774 8.2412 8.75774 8.13276 8.68774C8.13276 8.50475 8.13276 8.32176 8.13276 8.13323C8.4858 7.89956 8.82196 7.7026 9.19747 7.50941C9.39803 7.40567 9.59772 7.30031 9.79637 7.19317C9.88558 7.14734 9.97479 7.1015 10.0667 7.05428C10.3411 6.83738 10.37 6.66343 10.4232 6.33109C10.2455 6.27748 10.0678 6.22387 9.88472 6.16864C9.64965 6.09579 9.4146 6.02287 9.17958 5.94987C9.00422 5.89733 9.00422 5.89733 8.82533 5.84373C8.16134 5.63548 7.63219 5.43718 7.13068 4.94483C6.96104 4.39038 6.94588 4.08647 7.14858 3.54124C7.44156 3.1062 7.73605 2.80032 8.13276 2.44955C8.22097 2.36682 8.30918 2.28408 8.40006 2.19883C9.35387 1.33101 11.3088 -0.421872 12.7137 0.0929061Z" fill="white"/>
<path d="M4.17658 27C4.44759 27.0119 4.44759 27.0119 4.74179 27.1379C4.91677 27.4623 4.91677 27.4623 5.06856 27.9138C5.09746 27.9977 5.12637 28.0816 5.15615 28.168C5.38388 28.8404 5.58661 29.5202 5.79302 30.1991C6.38285 32.1326 7.08301 33.9869 7.95369 35.8173C8.05115 36.0226 8.05115 36.0226 8.15057 36.2319C8.27729 36.4965 8.40566 36.7603 8.53592 37.0232C8.8428 37.6586 9.06861 38.1415 8.98091 38.8621C8.84102 38.9076 8.70113 38.9531 8.55699 39C7.85056 38.5319 7.47031 38.0117 7.07331 37.2845C7.01887 37.187 6.96443 37.0895 6.90834 36.9891C6.40617 36.075 5.97593 35.1385 5.58962 34.1724C5.54918 34.073 5.50874 33.9736 5.46708 33.8712C4.58086 31.679 3.82578 29.5248 4.03527 27.1379C4.08191 27.0924 4.12854 27.0469 4.17658 27Z" fill="white"/>
<path d="M19.8307 2.07404C19.9145 2.362 19.9145 2.362 20 2.65577C19.8182 2.75776 19.6363 2.85974 19.449 2.96482C17.0613 4.24045 17.0613 4.24045 15.7665 6.2916C15.9446 6.32619 15.9446 6.32619 16.1263 6.36148C17.4364 6.63817 18.4145 7.00267 19.4073 7.79138C19.7481 8.31576 19.7888 8.76651 19.6613 9.3457C19.2258 10.1406 18.5466 10.5909 17.6292 10.9455C17.0577 11.0182 17.0577 11.0182 16.6132 10.9455C16.5014 10.8015 16.3897 10.6575 16.2745 10.5092C16.4526 10.3607 16.4526 10.3607 16.6344 10.2092C17.6462 9.44631 17.6462 9.44631 18.1373 8.4731C17.9393 8.41686 17.7413 8.36062 17.5373 8.30267C17.2751 8.22624 17.0129 8.14974 16.7508 8.07316C16.5555 8.01804 16.5555 8.01804 16.3562 7.96181C15.4796 7.70331 14.7628 7.4207 14.1895 6.76426C14.0047 6.24473 13.9341 5.80151 14.0731 5.27357C14.9516 3.90142 17.8773 1.55341 19.8307 2.07404Z" fill="white"/>
</svg>
