<svg width="579" height="701" viewBox="0 0 579 701" fill="none" xmlns="http://www.w3.org/2000/svg">
<path d="M320.772 1.22613C322.769 1.57849 324.768 1.91447 326.772 2.22613C327.102 3.21613 327.432 4.20613 327.772 5.22613C328.432 4.56613 329.092 3.90613 329.772 3.22613C332.014 2.77691 332.014 2.77691 334.647 2.53863C335.511 2.45226 336.374 2.36589 337.264 2.27691C339.662 2.22836 341.493 2.5213 343.772 3.22613C343.772 3.88613 343.772 4.54613 343.772 5.22613C344.762 5.55613 345.752 5.88613 346.772 6.22613C346.442 7.54613 346.112 8.86613 345.772 10.2261C342.472 10.8861 339.172 11.5461 335.772 12.2261C337.752 13.7111 337.752 13.7111 339.772 15.2261C342.332 20.346 341.668 24.7763 340.772 30.2261C341.664 30.3473 342.556 30.4685 343.475 30.5933C344.646 30.7609 345.816 30.9285 347.022 31.1011C348.762 31.3448 348.762 31.3448 350.538 31.5933C353.772 32.2261 353.772 32.2261 355.715 33.2054C357.818 34.2488 359.628 34.739 361.924 35.191C362.701 35.3515 363.478 35.5119 364.278 35.6773C365.894 36.0006 367.512 36.3209 369.129 36.6382C373.619 37.5719 376.89 38.6941 380.772 41.2261C383.026 42.1641 385.298 43.059 387.584 43.9136C388.746 44.3506 389.907 44.7876 391.104 45.2378C392.425 45.727 392.425 45.727 393.772 46.2261C393.772 46.8861 393.772 47.5461 393.772 48.2261C398.722 49.7111 398.722 49.7111 403.772 51.2261C403.772 51.8861 403.772 52.5461 403.772 53.2261C404.762 53.5561 405.752 53.8861 406.772 54.2261C407.772 55.2261 408.772 56.2261 409.772 57.2261C411.307 58.1676 412.872 59.0625 414.459 59.9136C415.672 60.5691 415.672 60.5691 416.909 61.2378C417.524 61.564 418.138 61.8901 418.772 62.2261C418.896 61.0093 419.019 59.7924 419.147 58.5386C419.561 55.1613 420.318 52.3286 421.772 49.2261C422.432 49.2261 423.092 49.2261 423.772 49.2261C423.669 48.463 423.566 47.6999 423.459 46.9136C423.563 46.0268 423.666 45.1399 423.772 44.2261C426.147 42.6011 426.147 42.6011 428.772 41.2261C429.432 40.2361 430.092 39.2461 430.772 38.2261C432.944 37.3121 432.944 37.3121 435.522 36.6011C436.362 36.3614 437.203 36.1216 438.069 35.8746C438.961 35.6606 439.853 35.4466 440.772 35.2261C441.632 34.9864 442.492 34.7466 443.377 34.4996C448.567 34.0815 453.288 35.3265 458.334 36.4761C459.362 36.694 460.39 36.9118 461.45 37.1363C466.516 38.2592 470.351 39.4491 474.772 42.2261C476.382 42.7154 478.009 43.1539 479.647 43.5386C484.202 44.81 487.018 46.6559 490.397 49.9214C491.76 51.3414 491.76 51.3414 493.772 52.2261C493.772 53.2161 493.772 54.2061 493.772 55.2261C494.638 55.5046 494.638 55.5046 495.522 55.7886C498.254 57.5342 499.345 59.6015 500.827 62.4371C501.811 64.3857 501.811 64.3857 503.459 66.6636C505.228 70.1157 505.553 73.4173 505.772 77.2261C505.851 78.4598 505.851 78.4598 505.932 79.7183C506.13 85.3852 505.397 89.1952 502.772 94.2261C502.112 94.2261 501.452 94.2261 500.772 94.2261C500.505 94.8114 500.238 95.3966 499.963 95.9996C497.712 100.207 494.971 102.933 490.772 105.226C485.219 106.616 479.469 106.909 473.772 107.226C474.785 108.261 474.785 108.261 475.819 109.316C487.772 121.908 487.772 121.908 487.772 130.226C488.762 130.226 489.752 130.226 490.772 130.226C491.027 131.166 491.027 131.166 491.288 132.125C491.53 132.942 491.772 133.759 492.022 134.601C492.254 135.413 492.486 136.225 492.725 137.062C494.009 139.716 495.134 140.079 497.772 141.226C498.479 142.876 499.138 144.547 499.772 146.226C500.948 147.742 500.948 147.742 502.147 149.289C505.249 153.553 506.487 157.993 507.834 163.039C508.336 164.818 508.841 166.597 509.35 168.375C509.711 169.637 509.711 169.637 510.079 170.924C511.148 174.475 512.51 177.867 514.01 181.253C515.523 185.172 515.909 189.138 516.088 193.308C516.151 194.705 516.151 194.705 516.215 196.13C516.255 197.09 516.294 198.05 516.334 199.039C516.378 200.018 516.421 200.997 516.465 202.005C516.571 204.412 516.673 206.819 516.772 209.226C517.432 209.226 518.092 209.226 518.772 209.226C518.112 211.536 517.452 213.846 516.772 216.226C517.432 216.226 518.092 216.226 518.772 216.226C519.102 219.526 519.432 222.826 519.772 226.226C519.112 226.226 518.452 226.226 517.772 226.226C517.711 226.916 517.651 227.605 517.588 228.316C517.119 233.575 516.614 238.82 515.956 244.058C515.715 246.309 515.715 246.309 515.916 248.902C515.72 253.42 514.421 257.324 513.022 261.601C512.643 262.819 512.643 262.819 512.256 264.062C509.89 271.446 507.399 277.787 501.772 283.226C501.339 284.495 501.339 284.495 500.897 285.789C499.329 289.186 497.066 289.613 493.772 291.226C492.738 292.872 491.731 294.536 490.772 296.226C489.782 296.226 488.792 296.226 487.772 296.226C487.772 296.886 487.772 297.546 487.772 298.226C484.307 300.206 484.307 300.206 480.772 302.226C480.772 302.886 480.772 303.546 480.772 304.226C481.432 304.866 482.092 305.505 482.772 306.164C484.772 308.226 484.772 308.226 484.772 311.226C485.762 311.556 486.752 311.886 487.772 312.226C488.959 314.789 488.959 314.789 489.772 317.226C490.432 317.226 491.092 317.226 491.772 317.226C492.205 318.319 492.638 319.412 493.084 320.539C494.047 322.822 494.689 324.143 496.459 325.914C496.893 326.347 497.326 326.78 497.772 327.226C497.772 328.546 497.772 329.866 497.772 331.226C498.432 331.226 499.092 331.226 499.772 331.226C500.061 331.866 500.349 332.505 500.647 333.164C501.6 335.378 501.6 335.378 503.772 336.226C504.7 338.299 505.541 340.411 506.334 342.539C506.769 343.69 507.203 344.841 507.651 346.027C508.493 348.431 509.226 350.744 509.772 353.226C510.762 353.226 511.752 353.226 512.772 353.226C513.279 354.807 513.777 356.391 514.272 357.976C514.69 359.299 514.69 359.299 515.116 360.648C515.772 363.226 515.772 363.226 515.772 367.226C516.432 367.226 517.092 367.226 517.772 367.226C517.772 367.886 517.772 368.546 517.772 369.226C518.432 369.226 519.092 369.226 519.772 369.226C523.032 380.748 523.032 380.748 523.772 386.226C524.762 386.226 525.752 386.226 526.772 386.226C526.87 386.976 526.968 387.727 527.069 388.5C528.211 396.316 530.09 403.313 533.889 410.273C535.225 413.229 534.895 416.033 534.772 419.226C535.432 419.556 536.092 419.886 536.772 420.226C537.334 422.406 537.334 422.406 537.772 425.101C538.344 428.606 538.752 430.197 540.772 433.226C541.167 435.184 541.167 435.184 541.37 437.394C541.449 438.206 541.528 439.017 541.61 439.853C541.684 440.698 541.758 441.543 541.834 442.414C541.991 444.074 542.149 445.734 542.307 447.394C542.383 448.204 542.459 449.014 542.537 449.849C542.954 454.063 543.462 458.265 544.123 462.449C545.088 468.941 544.509 475.256 543.959 481.768C543.742 484.621 543.587 487.475 543.432 490.332C542.235 510.488 542.235 510.488 537.995 518.785C536.684 521.402 535.985 523.893 535.272 526.726C534.07 531.034 532.491 532.651 528.772 535.226C528.079 536.882 527.407 538.547 526.772 540.226C525.782 540.556 524.792 540.886 523.772 541.226C521.588 543.41 520.669 544.363 519.772 547.226C519.947 554.215 519.947 554.215 522.772 560.226C523.682 566.595 523.893 572.8 523.772 579.226C524.432 579.226 525.092 579.226 525.772 579.226C527.433 585.558 528.724 591.912 529.897 598.351C530.079 599.314 530.26 600.277 530.448 601.269C531.159 605.155 531.773 608.759 531.764 612.718C531.542 615.479 531.542 615.479 533.772 618.226C533.442 619.216 533.112 620.206 532.772 621.226C533.102 621.556 533.432 621.886 533.772 622.226C536.714 643.62 536.714 643.62 532.772 650.226C532.112 650.226 531.452 650.226 530.772 650.226C530.772 651.216 530.772 652.206 530.772 653.226C531.731 653.133 531.731 653.133 532.709 653.039C539.775 653.471 545.838 656.565 551.772 660.226C551.772 660.886 551.772 661.546 551.772 662.226C553.195 662.195 553.195 662.195 554.647 662.164C557.772 662.226 557.772 662.226 559.772 663.226C559.772 663.886 559.772 664.546 559.772 665.226C560.473 665.494 561.174 665.762 561.897 666.039C564.937 667.294 567.845 668.728 570.772 670.226C570.772 671.546 570.772 672.866 570.772 674.226C571.721 674.453 572.669 674.68 573.647 674.914C576.772 676.226 576.772 676.226 578.147 678.476C578.83 681.48 578.915 684.156 578.772 687.226C577.452 687.556 576.132 687.886 574.772 688.226C574.442 689.876 574.112 691.526 573.772 693.226C561.574 697.646 544.134 702.572 531.772 697.226C531.772 697.886 531.772 698.546 531.772 699.226C530.452 699.226 529.132 699.226 527.772 699.226C527.772 698.566 527.772 697.906 527.772 697.226C527.112 697.226 526.452 697.226 525.772 697.226C525.772 697.886 525.772 698.546 525.772 699.226C513.712 699.976 501.727 700.382 489.647 699.914C488.635 699.879 487.623 699.844 486.581 699.808C485.155 699.743 485.155 699.743 483.702 699.675C482.452 699.619 482.452 699.619 481.178 699.561C478.472 699.184 476.262 698.33 473.772 697.226C473.772 697.886 473.772 698.546 473.772 699.226C472.756 699.093 471.74 698.961 470.694 698.824C469.303 698.645 467.913 698.467 466.522 698.289C465.528 698.158 465.528 698.158 464.514 698.025C440.549 694.973 416.203 694.184 392.084 693.101C391.097 693.057 390.109 693.012 389.092 692.967C386.273 692.841 383.454 692.717 380.635 692.593C379.783 692.556 378.932 692.519 378.054 692.48C374.957 692.347 371.872 692.226 368.772 692.226C365.772 692.226 362.772 692.226 359.772 692.226C359.772 691.566 359.772 690.906 359.772 690.226C358.88 690.238 357.988 690.249 357.069 690.261C355.313 690.275 355.313 690.275 353.522 690.289C351.782 690.306 351.782 690.306 350.006 690.324C346.772 690.226 346.772 690.226 344.923 689.749C342.314 689.115 339.803 688.94 337.123 688.761C336.036 688.683 334.948 688.605 333.827 688.525C331.548 688.368 329.27 688.214 326.991 688.064C325.9 687.985 324.81 687.905 323.686 687.824C322.695 687.757 321.705 687.69 320.685 687.621C316.853 687.102 313.234 686.264 310.049 684.003C307.561 680.541 306.529 676.353 305.151 672.355C303.738 669.149 302.276 667.603 299.772 665.226C299.359 664.009 298.947 662.792 298.522 661.539C297.656 659.899 297.656 659.899 296.772 658.226C293.763 657.474 291.779 657.193 288.772 657.226C288.086 657.213 287.4 657.2 286.694 657.187C285.053 657.167 283.412 657.192 281.772 657.226C281.483 657.948 281.194 658.67 280.897 659.414C280.526 660.342 280.154 661.27 279.772 662.226C279.463 663.092 279.153 663.959 278.834 664.851C277.772 667.226 277.772 667.226 276.327 668.64C274.661 670.339 273.836 671.828 272.834 673.976C272.493 674.675 272.151 675.373 271.799 676.093C271.137 677.469 270.482 678.849 269.838 680.234C268.263 683.358 267.306 685.001 264.032 686.384C260.787 687.222 257.832 687.613 254.491 687.824C253.319 687.903 252.147 687.982 250.94 688.064C249.124 688.175 249.124 688.175 247.272 688.289C244.865 688.444 242.459 688.601 240.053 688.761C238.992 688.827 237.93 688.893 236.836 688.961C233.773 689.226 230.798 689.688 227.772 690.226C226.398 690.402 225.023 690.57 223.647 690.726C220.085 691.089 220.085 691.089 217.949 691.742C214.972 692.404 212.11 692.412 209.061 692.472C207.675 692.504 206.29 692.536 204.904 692.568C204.171 692.583 203.438 692.599 202.682 692.615C188.636 692.916 174.613 693.466 160.584 694.226C159.806 694.268 159.027 694.31 158.224 694.353C153.073 694.632 147.922 694.925 142.772 695.226C141.699 695.288 141.699 695.288 140.604 695.351C132.724 695.808 124.864 696.31 117.022 697.226C116.269 697.309 115.516 697.391 114.741 697.476C111.342 697.862 108.075 698.349 104.772 699.226C104.772 698.566 104.772 697.906 104.772 697.226C103.452 697.226 102.132 697.226 100.772 697.226C100.772 697.886 100.772 698.546 100.772 699.226C84.695 699.994 68.8322 700.429 52.7719 699.226C52.7719 698.566 52.7719 697.906 52.7719 697.226C52.1119 697.226 51.4519 697.226 50.7719 697.226C50.7719 697.886 50.7719 698.546 50.7719 699.226C49.4519 699.226 48.1319 699.226 46.7719 699.226C46.7719 698.566 46.7719 697.906 46.7719 697.226C45.7819 697.226 44.7919 697.226 43.7719 697.226C43.7719 697.886 43.7719 698.546 43.7719 699.226C43.1325 699.041 42.4932 698.855 41.8344 698.664C41.1538 698.519 40.4732 698.375 39.7719 698.226C39.4419 698.556 39.1119 698.886 38.7719 699.226C32.2465 699.463 32.2465 699.463 29.7719 698.226C28.7445 698.242 27.7171 698.257 26.6586 698.273C22.3813 698.221 18.7088 697.514 14.5844 696.476C13.8864 696.319 13.1883 696.162 12.4692 696C8.15556 694.932 5.58717 693.689 2.7719 690.226C3.1019 689.566 3.4319 688.906 3.7719 688.226C2.7819 688.226 1.7919 688.226 0.771903 688.226C-0.328702 683.604 -0.46182 680.499 1.7719 676.226C4.8969 674.851 4.8969 674.851 7.7719 674.226C7.7719 673.484 7.7719 672.741 7.7719 671.976C8.96695 668.69 9.59952 668.541 12.6469 667.101C13.3456 666.81 14.0442 666.518 14.7641 666.218C16.8355 665.329 16.8355 665.329 18.3149 663.675C20.6561 661.347 23.6353 661.052 26.7719 660.226C29.9642 658.97 29.9642 658.97 31.7719 656.226C34.2956 655.427 36.7691 654.733 39.3344 654.101C40.0453 653.919 40.7562 653.738 41.4887 653.55C43.2479 653.102 45.0097 652.663 46.7719 652.226C46.4467 651.66 46.1214 651.095 45.7863 650.512C44.6737 648.005 44.5272 646.382 44.5414 643.656C44.5425 642.768 44.5435 641.88 44.5446 640.965C44.5577 640.02 44.5709 639.075 44.5844 638.101C44.593 637.127 44.6016 636.153 44.6105 635.15C44.6466 632.175 44.7042 629.201 44.7719 626.226C44.7912 625.342 44.8106 624.459 44.8305 623.548C44.8941 621.127 44.9826 618.708 45.0844 616.289C45.1067 615.575 45.129 614.861 45.152 614.126C45.4094 609.242 46.8036 605.657 48.7719 601.226C49.4735 597.773 49.4735 597.773 49.8344 594.289C50.3218 590.442 50.799 586.714 51.8344 582.976C52.8144 579.056 53.1792 575.349 53.4282 571.328C53.7719 569.226 53.7719 569.226 55.7719 567.226C56.0104 565.42 56.2394 563.613 56.4203 561.8C57.1393 556.536 58.5214 551.385 59.7719 546.226C59.1119 546.226 58.4519 546.226 57.7719 546.226C56.2563 544.503 56.2563 544.503 54.5219 542.164C52.317 539.21 50.09 536.49 47.5219 533.851C43.8172 529.661 42.8775 524.589 41.7719 519.226C41.1119 519.226 40.4519 519.226 39.7719 519.226C37.4861 510.405 36.1566 501.876 35.5844 492.789C35.5025 491.677 35.4207 490.565 35.3364 489.419C34.4571 476.644 34.647 464.161 35.9438 451.42C36.1485 449.398 36.3397 447.376 36.5297 445.353C38.2974 427.438 38.2974 427.438 41.7719 422.226C42.6566 418.781 43.4488 415.335 44.184 411.855C44.62 409.955 45.1873 408.086 45.7719 406.226C46.7619 405.896 47.7519 405.566 48.7719 405.226C48.9537 404.049 48.9537 404.049 49.1391 402.847C51.3892 388.741 51.3892 388.741 54.7719 382.351C56.9879 378.134 57.9507 373.894 58.7719 369.226C59.4319 369.226 60.0919 369.226 60.7719 369.226C61.1019 367.576 61.4319 365.926 61.7719 364.226C62.4319 364.226 63.0919 364.226 63.7719 364.226C63.8544 363.236 63.9369 362.246 64.0219 361.226C64.6426 356.819 66.3611 352.956 68.7719 349.226C69.4319 348.896 70.0919 348.566 70.7719 348.226C70.9369 347.236 71.1019 346.246 71.2719 345.226C71.4369 344.236 71.6019 343.246 71.7719 342.226C72.4319 341.896 73.0919 341.566 73.7719 341.226C74.0813 340.298 74.3907 339.37 74.7094 338.414C75.7126 335.404 76.6365 333.539 78.7719 331.226C79.4319 331.226 80.0919 331.226 80.7719 331.226C80.8957 330.257 81.0194 329.287 81.1469 328.289C81.3532 327.278 81.5594 326.267 81.7719 325.226C82.4319 324.896 83.0919 324.566 83.7719 324.226C84.1019 323.236 84.4319 322.246 84.7719 321.226C85.4319 321.226 86.0919 321.226 86.7719 321.226C86.7719 319.906 86.7719 318.586 86.7719 317.226C87.4319 317.226 88.0919 317.226 88.7719 317.226C89.1019 315.576 89.4319 313.926 89.7719 312.226C90.7619 312.226 91.7519 312.226 92.7719 312.226C93.0194 311.484 93.2669 310.741 93.5219 309.976C94.8634 307.025 96.381 305.378 98.7719 303.226C98.2782 302.888 97.7845 302.551 97.2758 302.203C96.6351 301.757 95.9945 301.311 95.3344 300.851C94.6963 300.41 94.0582 299.969 93.4008 299.515C91.7719 298.226 91.7719 298.226 90.7719 296.226C89.7819 296.226 88.7919 296.226 87.7719 296.226C87.7719 295.566 87.7719 294.906 87.7719 294.226C87.1119 294.226 86.4519 294.226 85.7719 294.226C84.7819 292.741 84.7819 292.741 83.7719 291.226C82.7819 290.515 82.7819 290.515 81.7719 289.789C79.5296 288.037 79.0213 286.743 77.7719 284.226C76.2345 282.151 74.6301 280.143 73.0141 278.128C71.7719 276.226 71.7719 276.226 71.7719 273.226C70.7819 272.896 69.7919 272.566 68.7719 272.226C67.9373 269.598 67.2804 267.1 66.7094 264.414C65.6102 259.06 65.6102 259.06 63.6508 253.988C62.2721 251.224 62.7263 248.658 62.8969 245.64C62.8785 243.118 62.8785 243.118 61.811 240.453C60.5778 236.623 60.3164 232.962 60.1469 228.976C60.1104 228.22 60.0739 227.463 60.0363 226.684C59.9378 224.531 59.8532 222.379 59.7719 220.226C59.7294 219.301 59.6868 218.375 59.643 217.421C59.4835 211.107 60.3963 204.97 61.3344 198.742C61.7351 195.522 61.8514 192.466 61.7719 189.226C62.4319 189.226 63.0919 189.226 63.7719 189.226C63.9575 187.679 63.9575 187.679 64.1469 186.101C64.7162 182.572 65.6257 179.597 66.7719 176.226C67.4944 173.238 68.1433 170.236 68.7719 167.226C69.4319 167.226 70.0919 167.226 70.7719 167.226C71.0097 166.083 71.0097 166.083 71.2524 164.918C72.8243 157.961 74.9299 152.24 78.7719 146.226C79.4319 146.226 80.0919 146.226 80.7719 146.226C80.8544 145.339 80.9369 144.452 81.0219 143.539C81.8943 139.686 83.2524 138.236 85.7719 135.226C87.0861 132.989 88.3129 130.713 89.5453 128.429C91.1284 125.586 92.9673 122.933 94.7719 120.226C95.2463 119.216 95.7207 118.205 96.2094 117.164C97.9655 113.862 100.036 111.752 102.772 109.226C103.432 108.566 104.092 107.906 104.772 107.226C103.58 107.093 102.387 106.961 101.159 106.824C99.5922 106.646 98.0258 106.467 96.4594 106.289C95.6737 106.202 94.888 106.115 94.0785 106.025C93.3212 105.938 92.5639 105.851 91.7836 105.761C91.0871 105.683 90.3906 105.604 89.673 105.523C87.7719 105.226 87.7719 105.226 84.7719 104.226C84.7719 103.236 84.7719 102.246 84.7719 101.226C84.1325 100.958 83.4932 100.69 82.8344 100.414C80.7719 99.2261 80.7719 99.2261 79.7719 96.2261C79.1119 96.2261 78.4519 96.2261 77.7719 96.2261C77.7719 95.5661 77.7719 94.9061 77.7719 94.2261C76.2869 93.7311 76.2869 93.7311 74.7719 93.2261C71.9309 82.4022 72.1873 71.4412 77.7719 61.4761C79.0682 59.3696 80.3999 57.2842 81.7719 55.2261C82.7619 55.2261 83.7519 55.2261 84.7719 55.2261C85.0426 54.628 85.3133 54.0299 85.5922 53.4136C88.7036 47.6441 93.7039 45.0233 99.7719 43.0386C100.816 42.7267 101.86 42.4147 102.936 42.0933C105.916 41.2525 105.916 41.2525 109.147 39.6636C120.893 35.0059 133.557 33.2381 145.666 37.3003C148.356 38.4832 150.07 39.8279 151.772 42.2261C151.772 42.8861 151.772 43.5461 151.772 44.2261C152.762 44.2261 153.752 44.2261 154.772 44.2261C155.079 45.075 155.079 45.075 155.393 45.941C155.662 46.6744 155.932 47.4079 156.209 48.1636C156.476 48.8945 156.743 49.6254 157.018 50.3785C157.626 52.2092 157.626 52.2092 158.772 53.2261C159.004 54.7408 159.184 56.2637 159.334 57.7886C159.418 58.6149 159.502 59.4412 159.588 60.2925C159.649 60.9306 159.709 61.5687 159.772 62.2261C160.597 61.6486 161.422 61.0711 162.272 60.4761C165.406 58.3592 168.683 56.7856 172.135 55.2535C174.116 54.2515 174.116 54.2515 174.772 51.2261C177.057 50.2769 177.057 50.2769 179.834 49.5386C180.753 49.2873 181.673 49.0359 182.62 48.7769C183.33 48.5952 184.04 48.4134 184.772 48.2261C184.772 47.5661 184.772 46.9061 184.772 46.2261C187.605 45.1213 190.438 44.0173 193.272 42.9136C194.063 42.6049 194.855 42.2962 195.67 41.9781C198.036 41.057 200.404 40.1411 202.772 39.2261C203.485 38.9473 204.198 38.6684 204.933 38.3812C208.902 36.8527 212.807 35.6236 216.959 34.6636C219.819 34.0003 222.468 33.3555 225.17 32.2066C234.544 28.6739 251.231 27.0457 260.772 30.2261C261.329 29.3393 261.886 28.4524 262.459 27.5386C264.55 24.3802 267.057 21.8676 269.772 19.2261C270.102 18.5661 270.432 17.9061 270.772 17.2261C271.432 17.2261 272.092 17.2261 272.772 17.2261C272.772 16.5661 272.772 15.9061 272.772 15.2261C273.906 14.7724 275.041 14.3186 276.209 13.8511C279.819 12.6552 279.819 12.6552 280.772 10.2261C284.674 8.33623 288.747 6.83592 292.772 5.22613C293.652 4.83683 294.533 4.44753 295.44 4.04644C303.111 0.705008 312.599 -1.4982 320.772 1.22613ZM238.709 41.5386C237.959 41.6566 237.208 41.7745 236.434 41.896C231.952 42.6514 227.976 43.8404 223.761 45.5193C220.41 46.7102 216.962 47.2297 213.459 47.7886C207.837 48.6684 207.837 48.6684 202.772 51.2261C200.805 52.089 198.825 52.9193 196.834 53.7261C193.412 55.1173 190.05 56.5197 186.772 58.2261C186.772 58.8861 186.772 59.5461 186.772 60.2261C185.534 60.5664 185.534 60.5664 184.272 60.9136C181.514 61.9479 179.672 62.8412 177.272 64.4136C173.586 66.8238 169.732 68.7542 165.772 70.6636C160.425 73.2697 155.017 75.9681 150.772 80.2261C150.772 80.8861 150.772 81.5461 150.772 82.2261C150.029 82.4943 149.287 82.7624 148.522 83.0386C145.881 84.1789 143.916 85.3199 141.772 87.2261C141.772 87.8861 141.772 88.5461 141.772 89.2261C141.091 89.4324 140.411 89.6386 139.709 89.8511C135.843 91.6611 132.708 94.1246 129.772 97.2261C129.442 98.2161 129.112 99.2061 128.772 100.226C127.782 100.556 126.792 100.886 125.772 101.226C125.442 102.216 125.112 103.206 124.772 104.226C123.484 105.603 122.144 106.933 120.772 108.226C119.401 109.521 118.058 110.848 116.772 112.226C116.772 112.886 116.772 113.546 116.772 114.226C116.176 114.49 115.581 114.755 114.967 115.027C110.098 117.687 107.209 121.824 105.584 127.039C105.316 128.091 105.048 129.142 104.772 130.226C103.287 131.216 103.287 131.216 101.772 132.226C100.66 134.004 100.66 134.004 99.7719 136.039C98.6965 138.307 97.636 140.451 96.3344 142.601C91.8079 149.527 91.8079 149.527 89.7719 157.226C88.2869 157.721 88.2869 157.721 86.7719 158.226C85.6274 160.613 85.6274 160.613 84.7719 163.476C83.8081 166.448 82.9325 168.973 81.2563 171.617C79.3752 174.924 78.7524 177.999 78.0219 181.726C77.7589 183.015 77.496 184.304 77.225 185.632C76.8114 188.913 76.8766 191.08 77.7719 194.226C77.1119 194.556 76.4519 194.886 75.7719 195.226C74.0183 204.441 74.6431 214.449 74.5844 223.789C74.5714 225.026 74.5583 226.263 74.5449 227.538C74.5437 228.715 74.5426 229.892 74.5414 231.105C74.5373 232.163 74.5332 233.221 74.529 234.31C74.7807 237.332 75.547 239.473 76.7719 242.226C77.0805 244.48 77.0805 244.48 77.2094 246.789C78.0896 258.038 78.0896 258.038 83.7719 267.226C84.1844 268.422 84.5969 269.619 85.0219 270.851C86.9328 276.311 90.561 282.537 95.8071 285.296C96.7797 285.757 96.7797 285.757 97.7719 286.226C98.2579 286.717 98.7439 287.208 99.2446 287.714C101.083 289.534 102.848 290.374 105.209 291.414C105.971 291.758 106.733 292.102 107.518 292.457C110.006 293.442 110.006 293.442 113.772 293.226C113.772 293.886 113.772 294.546 113.772 295.226C132.328 300.127 149.042 298.912 167.772 296.226C169.583 296.027 171.396 295.838 173.209 295.664C174.074 295.58 174.939 295.496 175.83 295.41C176.471 295.349 177.112 295.289 177.772 295.226C177.772 294.566 177.772 293.906 177.772 293.226C178.329 293.249 178.886 293.273 179.459 293.296C183.419 293.39 186.949 293.321 190.772 292.226C193.654 291.404 196.029 291.165 199.022 291.289C204.863 291.44 210.181 289.754 215.772 288.226C228.543 285.049 241.71 283.666 254.733 281.91C255.598 281.792 256.463 281.674 257.354 281.553C259.477 281.266 261.601 280.986 263.725 280.707C266.87 280.296 266.87 280.296 270.147 279.101C275.816 277.733 280.707 278.461 286.147 280.476C290.735 281.425 293.527 280.276 297.92 278.902C302.864 277.73 307.683 278.413 312.558 279.696C315.156 280.318 317.751 280.727 320.393 281.128C321.495 281.297 322.596 281.465 323.731 281.638C324.879 281.812 326.027 281.985 327.209 282.164C329.458 282.506 331.707 282.849 333.956 283.191C337.423 283.718 340.89 284.244 344.358 284.768C345.505 284.942 346.652 285.117 347.834 285.296C348.866 285.453 349.897 285.609 350.959 285.77C355.938 286.578 360.81 287.69 365.674 289.019C371.193 290.501 375.986 291.429 381.694 291.203C384.528 291.235 387.002 291.944 389.713 292.718C392.773 293.473 395.852 293.717 398.987 293.98C400.772 294.226 400.772 294.226 401.772 295.226C403.581 295.414 405.395 295.55 407.209 295.664C411.038 295.946 414.662 296.346 418.397 297.226C435.864 300.915 454.69 300.267 470.772 292.226C471.736 291.775 472.7 291.324 473.694 290.859C478.522 288.912 478.522 288.912 481.772 285.226C482.375 284.945 482.978 284.664 483.6 284.375C486.304 282.945 487.651 281.258 489.522 278.851C490.136 278.08 490.749 277.309 491.381 276.515C493.118 274.103 493.118 274.103 492.772 270.226C493.432 270.226 494.092 270.226 494.772 270.226C494.772 268.576 494.772 266.926 494.772 265.226C495.432 265.226 496.092 265.226 496.772 265.226C505.738 243.564 505.619 217.246 502.772 194.226C502.711 193.445 502.651 192.664 502.588 191.859C502.217 187.363 501.366 183.567 499.659 179.394C498.615 176.844 497.696 174.259 496.772 171.664C494.989 166.746 493.114 161.909 490.772 157.226C490.112 157.226 489.452 157.226 488.772 157.226C488.421 155.989 488.071 154.751 487.709 153.476C485.64 147.22 482.205 141.813 478.772 136.226C478.246 135.303 477.72 134.38 477.178 133.429C475.961 131.107 475.961 131.107 473.772 130.226C473.177 128.181 472.817 126.133 472.432 124.039C472.214 123.441 471.996 122.842 471.772 122.226C470.782 121.896 469.792 121.566 468.772 121.226C467.456 119.597 467.456 119.597 466.209 117.664C465.022 115.757 465.022 115.757 463.772 114.226C463.112 114.226 462.452 114.226 461.772 114.226C461.442 113.236 461.112 112.246 460.772 111.226C460.112 110.896 459.452 110.566 458.772 110.226C458.442 109.236 458.112 108.246 457.772 107.226C457.112 107.226 456.452 107.226 455.772 107.226C455.772 106.566 455.772 105.906 455.772 105.226C455.112 104.896 454.452 104.566 453.772 104.226C453.442 103.236 453.112 102.246 452.772 101.226C450.897 99.0176 450.897 99.0176 448.772 97.2261C448.112 97.2261 447.452 97.2261 446.772 97.2261C446.772 96.5661 446.772 95.9061 446.772 95.2261C445.057 93.6379 445.057 93.6379 442.897 92.1011C442.178 91.5623 441.458 91.0235 440.717 90.4683C438.876 89.0467 438.876 89.0467 436.772 89.2261C436.442 88.2361 436.112 87.2461 435.772 86.2261C434.335 84.7981 434.335 84.7981 432.526 83.4839C431.858 82.9773 431.19 82.4706 430.502 81.9485C429.786 81.4214 429.071 80.8942 428.334 80.3511C427.61 79.8117 426.885 79.2723 426.138 78.7166C420.926 74.907 415.675 71.8483 409.772 69.2261C408.095 68.2442 406.427 67.2448 404.772 66.2261C402.536 65.0115 400.298 63.8025 398.053 62.605C395.772 61.2261 395.772 61.2261 393.444 59.23C390.267 56.8475 387.291 55.8233 383.522 54.6011C381.254 53.8624 378.998 53.0828 376.772 52.2261C376.442 51.5661 376.112 50.9061 375.772 50.2261C373.307 49.3756 373.307 49.3756 370.334 48.7261C369.253 48.4696 368.171 48.2131 367.057 47.9488C363.361 47.1357 359.656 46.4059 355.928 45.7535C353.772 45.2261 353.772 45.2261 352.018 44.2691C339.275 38.3519 321.52 38.693 308.596 43.0738C305.231 44.4468 302.651 46.0289 299.772 48.2261C298.782 48.5561 297.792 48.8861 296.772 49.2261C294.043 51.5387 294.043 51.5387 291.772 54.2261C291.772 55.2161 291.772 56.2061 291.772 57.2261C291.112 57.2261 290.452 57.2261 289.772 57.2261C288.566 61.8981 288.678 66.4411 288.772 71.2261C286.462 71.2261 284.152 71.2261 281.772 71.2261C281.772 70.2361 281.772 69.2461 281.772 68.2261C277.133 65.492 272.586 63.0814 267.522 61.2261C263.301 59.5785 260.488 57.9931 257.772 54.2261C256.649 49.5605 256.674 45.0108 256.772 40.2261C250.575 40.0969 244.81 40.4806 238.709 41.5386ZM127.522 50.2261C126.63 50.4118 125.738 50.5974 124.819 50.7886C124.143 50.933 123.468 51.0774 122.772 51.2261C122.772 51.5561 122.772 51.8861 122.772 52.2261C121.473 52.4324 120.173 52.6386 118.834 52.8511C113.236 54.0834 109.344 56.9041 104.772 60.2261C103.587 60.9382 102.399 61.6471 101.209 62.3511C100.405 62.9699 99.6007 63.5886 98.7719 64.2261C98.7719 65.5461 98.7719 66.8661 98.7719 68.2261C98.1532 68.4943 97.5344 68.7624 96.8969 69.0386C94.4724 70.1817 94.4724 70.1817 92.7719 73.2261C92.2807 75.4697 92.2807 75.4697 92.0844 77.8511C91.998 78.6478 91.9117 79.4444 91.8227 80.2652C91.8059 80.9123 91.7892 81.5594 91.7719 82.2261C92.1019 82.5561 92.4319 82.8861 92.7719 83.2261C92.9007 85.2224 93.0263 87.2193 93.1 89.2183C93.6488 91.4284 93.6488 91.4284 95.8461 93.0074C99.6334 94.585 102.272 94.2788 106.334 93.8511C113.454 93.1314 113.454 93.1314 115.987 93.8863C117.907 94.4648 117.907 94.4648 119.772 92.9332C120.432 92.308 121.092 91.6828 121.772 91.0386C122.808 90.068 122.808 90.068 123.866 89.0777C124.495 88.4667 125.124 87.8557 125.772 87.2261C126.597 86.463 127.422 85.6999 128.272 84.9136C129.993 83.3533 129.993 83.3533 129.772 81.2261C130.391 81.0818 131.009 80.9374 131.647 80.7886C133.804 80.2946 133.804 80.2946 135.772 79.2261C135.772 78.5661 135.772 77.9061 135.772 77.2261C136.762 76.8961 137.752 76.5661 138.772 76.2261C138.772 75.5661 138.772 74.9061 138.772 74.2261C139.721 73.958 140.669 73.6899 141.647 73.4136C145.025 72.4763 145.025 72.4763 146.772 69.2261C148.897 68.0386 148.897 68.0386 150.772 67.2261C151.352 60.7321 147.799 56.0526 143.772 51.2261C138.808 48.178 132.98 49.077 127.522 50.2261ZM434.772 51.2261C433.35 52.7825 433.35 52.7825 432.584 54.6636C430.772 58.2261 430.772 58.2261 429.022 59.7261C426.907 62.2644 427.594 65.0747 427.772 68.2261C428.432 68.5561 429.092 68.8861 429.772 69.2261C430.432 68.8961 431.092 68.5661 431.772 68.2261C431.978 68.8243 432.184 69.4224 432.397 70.0386C434.275 73.0273 436.627 73.754 439.772 75.2261C440.102 75.8861 440.432 76.5461 440.772 77.2261C441.432 77.2261 442.092 77.2261 442.772 77.2261C443.102 78.2161 443.432 79.2061 443.772 80.2261C445.422 80.5561 447.072 80.8861 448.772 81.2261C448.834 81.8449 448.896 82.4636 448.959 83.1011C449.228 83.8024 449.496 84.5036 449.772 85.2261C451.433 85.9075 453.1 86.5735 454.772 87.2261C455.834 89.1636 455.834 89.1636 456.772 91.2261C459.764 94.0184 460.478 94.2261 464.772 94.2261C464.772 93.5661 464.772 92.9061 464.772 92.2261C465.413 92.3937 466.053 92.5613 466.713 92.7339C472.266 94.0414 476.437 94.8392 481.772 92.2261C484.349 88.4459 485.493 84.7802 485.772 80.2261C484.866 75.7713 483.998 73.3181 480.772 70.2261C480.504 69.2155 480.236 68.2049 479.959 67.1636C479.372 65.7096 479.372 65.7096 478.772 64.2261C475.763 63.0009 475.763 63.0009 472.772 62.2261C472.277 60.7411 472.277 60.7411 471.772 59.2261C468.003 56.9525 468.003 56.9525 463.772 56.2261C463.772 55.5661 463.772 54.9061 463.772 54.2261C460.802 53.8961 457.832 53.5661 454.772 53.2261C454.772 52.5661 454.772 51.9061 454.772 51.2261C452.567 50.8334 450.357 50.4627 448.147 50.1011C446.917 49.8923 445.687 49.6835 444.42 49.4683C440.541 49.2108 438.269 49.5668 434.772 51.2261ZM272.616 290.765C270.31 291.342 268.139 291.226 265.772 291.226C265.442 291.556 265.112 291.886 264.772 292.226C263.36 292.416 261.942 292.551 260.522 292.664C255.379 293.131 250.314 293.875 245.217 294.695C242.842 295.061 240.461 295.392 238.077 295.695C230.82 296.487 230.82 296.487 223.959 298.789C219.891 300.623 216.172 300.855 211.772 301.226C209.77 301.546 207.769 301.879 205.772 302.226C203.439 302.559 201.105 302.893 198.772 303.226C194.437 303.886 190.105 304.555 185.772 305.226C185.772 305.886 185.772 306.546 185.772 307.226C184.122 307.226 182.472 307.226 180.772 307.226C180.714 310.497 180.678 313.768 180.647 317.039C180.63 317.967 180.613 318.896 180.596 319.853C180.59 320.746 180.583 321.638 180.577 322.558C180.566 323.38 180.556 324.203 180.545 325.05C180.632 327.52 180.632 327.52 182.772 330.226C184.257 329.731 184.257 329.731 185.772 329.226C187.389 329.034 189.012 328.884 190.635 328.761C191.624 328.685 192.613 328.608 193.631 328.529C194.7 328.449 195.768 328.37 196.87 328.289C198.526 328.161 198.526 328.161 200.215 328.031C203.755 327.759 207.294 327.492 210.834 327.226C214.349 326.959 217.864 326.691 221.379 326.421C223.566 326.254 225.753 326.088 227.94 325.924C234.228 325.446 240.501 324.886 246.772 324.226C246.772 323.566 246.772 322.906 246.772 322.226C247.955 322.238 249.139 322.249 250.358 322.261C251.954 322.271 253.551 322.28 255.147 322.289C255.922 322.297 256.696 322.305 257.495 322.314C261.502 322.331 265.403 322.197 269.385 321.734C276.433 320.966 283.504 321.029 290.584 321.039C291.673 321.039 291.673 321.039 292.784 321.039C301.785 321.055 310.74 321.211 319.709 322.039C320.499 322.109 321.288 322.179 322.101 322.251C326.052 322.679 329.633 323.452 333.407 324.703C338.61 326.291 343.612 326.919 349.022 327.324C349.961 327.404 350.899 327.483 351.867 327.566C354.834 327.817 357.803 328.054 360.772 328.289C363.741 328.529 366.709 328.772 369.677 329.022C371.513 329.177 373.35 329.325 375.187 329.467C380.433 329.901 385.431 330.697 390.554 331.92C392.935 332.249 394.503 331.962 396.772 331.226C396.76 330.583 396.749 329.94 396.737 329.277C396.663 321.88 397.116 314.592 397.772 307.226C396.122 307.226 394.472 307.226 392.772 307.226C392.772 306.566 392.772 305.906 392.772 305.226C392.131 305.177 391.491 305.128 390.831 305.078C386.749 304.725 383.035 304.302 379.084 303.164C375.814 302.076 375.814 302.076 372.459 302.226C365.583 302.226 359.243 300.429 352.772 298.226C344.718 296.204 336.56 295.197 328.334 294.164C325.627 293.823 322.92 293.477 320.213 293.128C318.43 292.904 318.43 292.904 316.61 292.675C313.772 292.226 313.772 292.226 311.772 291.226C310.596 291.226 309.421 291.226 308.209 291.226C307.075 291.226 305.941 291.226 304.772 291.226C304.277 290.731 304.277 290.731 303.772 290.226C301.16 289.956 298.579 289.75 295.959 289.601C294.81 289.535 294.81 289.535 293.638 289.467C286.624 289.119 279.471 289.051 272.616 290.765ZM105.772 305.226C102.095 309.657 100.217 313.494 98.5844 318.968C97.4748 322.052 95.7637 324.548 93.9594 327.265C92.4297 329.791 91.5415 332.376 90.5883 335.16C89.664 337.499 88.4845 339.559 87.2094 341.726C85.4692 344.715 84.3956 347.276 83.7094 350.664C83.4 351.839 83.0907 353.015 82.7719 354.226C82.1338 354.536 81.4957 354.845 80.8383 355.164C78.0724 356.586 77.7868 357.894 76.7719 360.789C75.5094 364.252 74.1685 367.585 72.5844 370.914C70.8528 374.73 70.1265 378.06 69.7719 382.226C69.1119 382.226 68.4519 382.226 67.7719 382.226C65.5551 388.071 63.4095 393.875 61.7719 399.914C60.7719 403.226 60.7719 403.226 58.7719 406.226C56.4802 413.43 55.255 420.696 54.7719 428.226C54.1119 428.226 53.4519 428.226 52.7719 428.226C45.6486 453.87 43.807 487.719 52.7719 513.226C53.4319 513.226 54.0919 513.226 54.7719 513.226C54.8815 513.878 54.991 514.531 55.1039 515.203C56.037 520.346 57.1197 524.645 59.7719 529.226C60.4319 529.226 61.0919 529.226 61.7719 529.226C62.1019 529.886 62.4319 530.546 62.7719 531.226C63.4319 530.896 64.0919 530.566 64.7719 530.226C65.395 528.283 65.395 528.283 65.7719 525.929C65.9369 525.053 66.1019 524.176 66.2719 523.273C66.5194 521.889 66.5194 521.889 66.7719 520.476C67.7404 515.15 68.691 510.243 70.7719 505.226C70.7719 503.906 70.7719 502.586 70.7719 501.226C71.4319 501.226 72.0919 501.226 72.7719 501.226C72.7307 499.947 72.6894 498.669 72.6469 497.351C72.5766 495.171 72.5766 495.171 72.7719 493.226C73.7619 492.236 73.7619 492.236 74.7719 491.226C75.3458 489.401 75.3458 489.401 75.7094 487.289C77.133 480.371 78.7753 473.522 81.4594 466.976C82.8713 462.942 83.0341 460.421 82.7719 456.226C83.7619 456.226 84.7519 456.226 85.7719 456.226C86.0813 455.133 86.3907 454.04 86.7094 452.914C87.3553 450.672 88.0342 448.439 88.7719 446.226C89.1193 444.229 89.4516 442.228 89.7719 440.226C89.9782 439.319 90.1844 438.411 90.3969 437.476C91.0032 435.199 91.0032 435.199 89.7719 433.226C90.7619 432.896 91.7519 432.566 92.7719 432.226C93.7706 429.236 93.7706 429.236 94.3969 425.726C95.6956 419.302 95.6956 419.302 96.7719 418.226C96.8128 415.893 96.8143 413.559 96.7719 411.226C97.7619 411.226 98.7519 411.226 99.7719 411.226C99.7719 408.916 99.7719 406.606 99.7719 404.226C100.432 404.226 101.092 404.226 101.772 404.226C102.026 403.057 102.28 401.888 102.541 400.683C102.889 399.135 103.236 397.587 103.584 396.039C103.75 395.27 103.916 394.501 104.086 393.709C105.092 389.286 106.427 386.13 108.772 382.226C109.487 379.466 110.103 376.768 110.647 373.976C112.534 364.892 115.07 356.095 117.772 347.226C118.117 345.968 118.463 344.71 118.819 343.414C119.756 340.281 121.043 337.977 122.772 335.226C122.772 334.566 122.772 333.906 122.772 333.226C123.762 332.896 124.752 332.566 125.772 332.226C125.772 331.236 125.772 330.246 125.772 329.226C126.432 329.226 127.092 329.226 127.772 329.226C127.772 328.566 127.772 327.906 127.772 327.226C129.422 327.226 131.072 327.226 132.772 327.226C134.11 332.711 133.517 337.078 130.756 342.058C129.513 344.796 129.215 347.308 128.834 350.289C128.084 355.627 126.943 360.64 125.358 365.789C124.669 368.218 124.669 368.218 124.799 370.753C124.768 373.561 124.11 375.241 122.959 377.789C120.444 383.743 117.772 390.686 117.772 397.226C117.112 397.226 116.452 397.226 115.772 397.226C115.506 398.395 115.241 399.564 114.967 400.769C114.611 402.317 114.254 403.866 113.897 405.414C113.723 406.183 113.549 406.951 113.37 407.744C112.24 412.616 110.754 417.031 108.709 421.601C107.572 424.787 107.234 427.877 106.772 431.226C105.699 435.373 104.376 439.263 102.772 443.226C100.71 448.99 99.0327 454.815 97.518 460.746C96.7719 463.226 96.7719 463.226 95.7446 465.277C94.6886 467.393 94.227 469.285 93.7719 471.601C93.004 475.256 92.0207 478.7 90.7719 482.226C90.2465 483.745 89.726 485.266 89.2094 486.789C88.9606 487.512 88.7118 488.235 88.4555 488.98C87.7262 491.376 87.2482 493.769 86.7719 496.226C90.6055 496.086 94.4387 495.938 98.2719 495.789C99.3496 495.749 100.427 495.71 101.538 495.669C104.618 495.547 107.694 495.396 110.772 495.226C111.596 495.187 112.419 495.148 113.268 495.108C115.643 494.972 115.643 494.972 118.772 494.226C120.428 491.645 121.159 489.076 121.772 486.093C121.936 485.295 122.1 484.497 122.269 483.675C122.435 482.826 122.601 481.976 122.772 481.101C122.946 480.223 123.119 479.345 123.298 478.441C125.194 468.523 126.772 458.342 126.772 448.226C127.432 448.226 128.092 448.226 128.772 448.226C128.954 447.031 128.954 447.031 129.139 445.812C129.307 444.752 129.474 443.693 129.647 442.601C129.809 441.557 129.972 440.513 130.139 439.437C130.772 436.226 130.772 436.226 131.784 433.261C132.872 429.919 133.305 426.777 133.709 423.289C134.691 415.812 134.691 415.812 136.397 412.289C138.016 408.683 137.842 406.144 137.772 402.226C138.08 401.23 138.388 400.233 138.705 399.207C140.479 393.328 140.552 387.148 140.983 381.056C141.058 380.108 141.132 379.16 141.209 378.183C141.27 377.327 141.331 376.471 141.393 375.589C141.792 373.1 142.647 371.462 143.772 369.226C144.191 366.933 144.191 366.933 144.334 364.472C144.408 363.544 144.482 362.616 144.557 361.66C144.664 360.177 144.664 360.177 144.772 358.664C144.936 356.585 145.101 354.507 145.268 352.429C145.391 350.868 145.391 350.868 145.518 349.275C145.89 344.814 146.352 340.364 146.834 335.914C146.918 335.137 147.002 334.361 147.088 333.561C147.245 332.105 147.402 330.649 147.56 329.194C147.989 325.207 148.379 321.217 148.772 317.226C149.432 317.226 150.092 317.226 150.772 317.226C150.772 315.246 150.772 313.266 150.772 311.226C149.788 311.261 148.805 311.296 147.791 311.332C134.268 311.65 121.001 310.041 107.772 307.226C107.772 306.566 107.772 305.906 107.772 305.226C107.112 305.226 106.452 305.226 105.772 305.226ZM470.19 306.031C457.513 312.114 441.56 311.637 427.772 311.226C427.914 312.976 428.061 314.726 428.209 316.476C428.291 317.451 428.372 318.425 428.456 319.429C428.723 321.791 429.126 323.945 429.772 326.226C430.432 326.226 431.092 326.226 431.772 326.226C431.855 327.467 431.855 327.467 431.94 328.733C432.147 331.812 432.358 334.891 432.571 337.969C432.708 339.953 432.84 341.937 432.973 343.921C433.06 345.172 433.147 346.422 433.237 347.711C433.315 348.863 433.394 350.015 433.475 351.202C433.718 353.673 434.127 355.843 434.772 358.226C434.791 359.747 434.767 361.269 434.709 362.789C434.634 368.432 435.6 373.723 436.772 379.226C437.432 379.226 438.092 379.226 438.772 379.226C438.76 379.904 438.749 380.582 438.737 381.281C438.675 387.621 438.727 393.955 439.772 400.226C440.102 400.556 440.432 400.886 440.772 401.226C441.148 404.185 441.479 407.134 441.772 410.101C441.935 411.745 442.102 413.388 442.272 415.031C442.344 415.763 442.416 416.495 442.491 417.249C442.741 419.432 442.741 419.432 443.772 422.226C444.432 422.226 445.092 422.226 445.772 422.226C445.821 423.011 445.87 423.796 445.92 424.605C446.336 430.447 447.095 435.602 448.772 441.226C449.303 444.493 449.768 447.763 450.209 451.043C450.692 454.23 450.692 454.23 451.768 457.203C452.858 460.487 453.369 463.613 453.834 467.039C454.06 470.953 454.06 470.953 455.772 474.226C455.998 475.637 456.166 477.058 456.307 478.48C456.394 479.334 456.481 480.188 456.571 481.068C456.658 481.966 456.745 482.864 456.834 483.789C456.925 484.69 457.016 485.592 457.11 486.521C457.334 488.756 457.555 490.991 457.772 493.226C461.391 494.886 464.055 495.43 468.022 495.289C473.384 495.188 478.673 495.39 484.022 495.726C484.785 495.774 485.549 495.822 486.335 495.871C488.148 495.987 489.96 496.106 491.772 496.226C490.076 489.873 488.319 483.596 486.123 477.394C482.72 467.532 480.252 457.353 477.772 447.226C477.112 447.226 476.452 447.226 475.772 447.226C475.662 446.536 475.553 445.847 475.44 445.136C474.508 439.612 473.309 434.436 471.428 429.16C470.655 426.882 470.243 424.582 469.772 422.226C469.461 421.671 469.151 421.115 468.831 420.543C467.405 417.424 466.978 414.352 466.397 410.976C465.488 406.03 464.346 401.898 461.823 397.543C459.223 391.811 458.167 385.341 456.772 379.226C456.112 379.226 455.452 379.226 454.772 379.226C454.639 378.106 454.506 376.986 454.37 375.832C454.191 374.359 454.013 372.886 453.834 371.414C453.747 370.676 453.66 369.938 453.571 369.177C453.19 366.059 452.768 363.215 451.772 360.226C451.488 358.353 451.219 356.478 450.959 354.601C450.322 350.555 449.493 347.254 447.647 343.601C445.28 338.824 445.378 334.463 445.772 329.226C447.422 328.566 449.072 327.906 450.772 327.226C451.432 329.206 452.092 331.186 452.772 333.226C453.762 333.226 454.752 333.226 455.772 333.226C456.04 334.278 456.308 335.33 456.584 336.414C457.561 340.107 457.561 340.107 459.248 342.613C460.861 345.379 461.601 347.743 462.334 350.851C462.582 351.893 462.829 352.934 463.084 354.007C463.937 358.001 464.63 362.009 465.245 366.046C465.618 368.42 465.618 368.42 467.772 370.226C468.137 372.555 468.465 374.889 468.772 377.226C470.509 383.915 472.917 390.359 475.293 396.843C477.021 401.67 478.266 406.121 478.772 411.226C479.432 411.226 480.092 411.226 480.772 411.226C480.973 412.278 480.973 412.278 481.178 413.351C481.794 416.335 482.519 419.274 483.272 422.226C484.204 425.88 485.064 429.522 485.772 433.226C486.432 433.226 487.092 433.226 487.772 433.226C487.545 433.989 487.318 434.752 487.084 435.539C486.981 436.426 486.878 437.312 486.772 438.226C487.226 438.659 487.679 439.092 488.147 439.539C490.804 442.298 490.465 445.486 490.772 449.226C491.432 449.226 492.092 449.226 492.772 449.226C492.71 450.051 492.648 450.876 492.584 451.726C492.875 457.141 494.982 461.548 497.272 466.414C499.18 470.757 500.002 475.364 501.01 479.98C501.996 484.18 503.326 488.164 504.772 492.226C505.432 492.226 506.092 492.226 506.772 492.226C506.57 493.221 506.367 494.216 506.159 495.242C505.567 499.401 506.407 502.991 507.584 506.976C507.763 507.635 507.941 508.294 508.125 508.972C509.017 512.144 509.928 514.461 511.772 517.226C512.626 520.857 513.301 524.506 513.991 528.171C514.248 529.179 514.506 530.188 514.772 531.226C515.432 531.556 516.092 531.886 516.772 532.226C517.037 531.672 517.303 531.118 517.577 530.546C517.93 529.822 518.283 529.098 518.647 528.351C518.995 527.632 519.343 526.913 519.702 526.171C520.772 524.226 520.772 524.226 522.772 522.226C523.232 520.024 523.232 520.024 523.397 517.601C523.472 516.784 523.546 515.967 523.623 515.125C523.672 514.498 523.721 513.872 523.772 513.226C524.432 513.226 525.092 513.226 525.772 513.226C525.977 512.395 526.182 511.563 526.393 510.707C526.662 509.62 526.932 508.533 527.209 507.414C527.476 506.335 527.743 505.256 528.018 504.144C528.533 502.152 529.121 500.178 529.772 498.226C532.177 477.409 534.235 452.027 526.272 432.226C525.209 429.561 524.449 427.014 523.916 424.195C523.708 423.097 523.708 423.097 523.495 421.976C522.903 418.729 522.329 415.48 521.772 412.226C521.112 412.226 520.452 412.226 519.772 412.226C519.48 410.914 519.189 409.601 518.897 408.289C518.622 407.063 518.622 407.063 518.342 405.812C517.972 404.132 517.612 402.45 517.264 400.765C517.102 399.989 516.939 399.213 516.772 398.414C516.555 397.352 516.555 397.352 516.334 396.269C515.726 394.059 514.843 392.25 513.772 390.226C511.836 386.135 510.028 382.164 508.834 377.789C507.655 373.835 505.969 370.45 504.069 366.8C502.449 363.585 501.093 360.286 499.764 356.941C498.821 354.874 498.821 354.874 495.772 354.226C495.092 352.048 494.824 349.904 494.495 347.648C493.567 344.54 491.793 342.75 489.772 340.226C488.775 337.989 487.859 335.715 487.022 333.414C486.594 332.252 486.166 331.091 485.725 329.894C485.253 328.573 485.253 328.573 484.772 327.226C484.112 327.226 483.452 327.226 482.772 327.226C482.648 326.504 482.524 325.782 482.397 325.039C481.781 322.269 480.887 319.829 479.772 317.226C479.112 317.226 478.452 317.226 477.772 317.226C477.927 316.205 477.927 316.205 478.084 315.164C477.642 311.005 475.497 308.326 472.772 305.226C471.625 305.151 471.625 305.151 470.19 306.031ZM98.9594 519.601C97.6823 519.648 97.6823 519.648 96.3793 519.695C90.6291 519.958 85.3596 520.836 79.7719 522.226C79.6623 522.942 79.5528 523.657 79.4399 524.394C77.9673 533.648 76.4085 542.974 73.1469 551.789C71.2751 557.089 70.8069 562.626 70.7719 568.226C71.1019 568.886 71.4319 569.546 71.7719 570.226C71.1119 570.226 70.4519 570.226 69.7719 570.226C69.1256 573.289 68.48 576.351 67.8344 579.414C67.5608 580.71 67.5608 580.71 67.2817 582.033C66.93 583.701 66.5805 585.371 66.2333 587.04C65.8684 588.769 65.4788 590.493 65.0805 592.214C64.5637 594.291 64.5637 594.291 65.7719 596.226C65.1119 596.226 64.4519 596.226 63.7719 596.226C63.6863 597.13 63.6006 598.033 63.5124 598.964C63.1935 602.306 62.8707 605.647 62.5451 608.989C62.4048 610.437 62.2661 611.885 62.1291 613.333C61.9322 615.411 61.7296 617.489 61.5258 619.566C61.3451 621.443 61.3451 621.443 61.1608 623.359C60.7719 626.226 60.7719 626.226 59.7719 627.226C59.5377 628.678 59.3585 630.138 59.2094 631.601C59.1256 632.393 59.0418 633.184 58.9555 634C58.7145 636.922 58.7996 639.734 58.9594 642.664C58.9915 648.379 57.3017 653.763 55.7719 659.226C54.8438 659.164 53.9157 659.102 52.9594 659.039C49.8343 658.9 49.8343 658.9 48.2094 660.562C47.4978 661.386 47.4978 661.386 46.7719 662.226C45.1359 663.157 43.4655 664.03 41.7719 664.851C40.9057 665.277 40.0394 665.702 39.1469 666.14C36.7719 667.226 36.7719 667.226 33.7719 668.226C33.2975 668.701 32.8232 669.175 32.3344 669.664C30.6182 671.38 28.9734 672.239 26.7719 673.226C26.7719 673.886 26.7719 674.546 26.7719 675.226C25.4519 675.226 24.1319 675.226 22.7719 675.226C22.545 675.845 22.3182 676.464 22.0844 677.101C20.3926 679.84 18.7795 680.276 15.7719 681.226C15.7719 681.886 15.7719 682.546 15.7719 683.226C15.1532 683.494 14.5344 683.762 13.8969 684.039C11.4724 685.182 11.4724 685.182 9.7719 688.226C24.5284 689.426 39.2972 689.414 54.092 689.411C56.9221 689.411 59.7521 689.418 62.5822 689.432C82.7061 689.667 82.7061 689.667 102.694 687.657C106.086 687.182 109.351 687.158 112.772 687.226C112.772 686.566 112.772 685.906 112.772 685.226C116.732 685.226 120.692 685.226 124.772 685.226C125.102 685.886 125.432 686.546 125.772 687.226C125.772 686.566 125.772 685.906 125.772 685.226C126.811 685.166 127.85 685.105 128.92 685.043C141.727 685.123 141.727 685.123 153.772 682.226C155.147 682.114 156.528 682.06 157.908 682.037C159.191 682.012 159.191 682.012 160.5 681.986C161.43 681.972 162.361 681.959 163.319 681.945C164.282 681.926 165.244 681.908 166.236 681.889C169.331 681.83 172.427 681.778 175.522 681.726C192.825 681.468 192.825 681.468 210.093 680.427C212.483 680.248 214.815 680.192 217.209 680.226C220.836 680.226 224.207 679.881 227.772 679.226C228.102 678.896 228.432 678.566 228.772 678.226C230.271 678.179 231.772 678.189 233.272 678.226C238.197 678.268 242.896 677.881 247.772 677.226C249.058 677.057 250.345 676.888 251.67 676.714C255.372 676.226 259.072 675.728 262.772 675.226C263.108 673.768 263.441 672.31 263.772 670.851C263.958 670.039 264.143 669.227 264.334 668.39C264.838 666.267 264.838 666.267 264.772 664.226C265.762 663.896 266.752 663.566 267.772 663.226C269.656 660.589 270.759 658.268 271.709 655.164C272.877 651.937 274.3 650.533 276.772 648.226C276.772 647.566 276.772 646.906 276.772 646.226C285.022 646.226 293.272 646.226 301.772 646.226C301.772 646.886 301.772 647.546 301.772 648.226C302.432 648.556 303.092 648.886 303.772 649.226C304.897 651.289 304.897 651.289 305.772 653.226C306.432 653.226 307.092 653.226 307.772 653.226C307.772 654.876 307.772 656.526 307.772 658.226C308.762 658.556 309.752 658.886 310.772 659.226C310.916 660.01 311.061 660.794 311.209 661.601C311.65 664.19 311.65 664.19 312.772 666.226C313.432 666.226 314.092 666.226 314.772 666.226C315.102 669.196 315.432 672.166 315.772 675.226C326.048 676.451 336.273 677.473 346.612 677.98C349.772 678.226 349.772 678.226 352.772 679.226C358.3 680.034 363.793 680.34 369.373 680.164C371.772 680.226 371.772 680.226 375.3 680.715C380.108 681.328 384.879 681.415 389.721 681.472C391.641 681.505 393.561 681.538 395.481 681.572C398.465 681.619 401.448 681.663 404.432 681.703C414.454 681.842 424.226 681.986 434.109 683.769C438.595 684.539 443.091 684.65 447.631 684.793C449.349 684.87 451.062 685.039 452.772 685.226C453.102 685.886 453.432 686.546 453.772 687.226C453.772 686.566 453.772 685.906 453.772 685.226C457.732 685.556 461.692 685.886 465.772 686.226C465.772 686.556 465.772 686.886 465.772 687.226C466.927 687.185 468.082 687.144 469.272 687.101C473.637 687.088 477.807 687.604 482.126 688.22C490.294 689.303 498.367 689.503 506.604 689.457C508.057 689.455 509.51 689.455 510.963 689.455C513.975 689.454 516.988 689.446 520 689.432C523.83 689.415 527.66 689.411 531.49 689.412C534.479 689.412 537.467 689.406 540.455 689.399C541.867 689.396 543.278 689.394 544.69 689.393C552.774 689.384 560.736 689.139 568.772 688.226C567.491 686.519 566.154 684.852 564.772 683.226C564.112 683.226 563.452 683.226 562.772 683.226C562.772 682.566 562.772 681.906 562.772 681.226C561.968 680.937 561.163 680.649 560.334 680.351C557.25 678.997 557.215 678.112 555.772 675.226C553.488 674.142 551.157 673.244 548.803 672.324C546.772 671.226 546.772 671.226 545.772 668.226C543.834 667.438 541.89 666.66 539.909 665.988C537.072 664.977 534.462 663.571 531.772 662.226C531.112 662.226 530.452 662.226 529.772 662.226C529.442 661.236 529.112 660.246 528.772 659.226C526.792 659.556 524.812 659.886 522.772 660.226C522.463 659.257 522.153 658.287 521.834 657.289C521.077 654.385 521.077 654.385 519.772 653.226C519.561 650.743 519.396 648.277 519.272 645.789C519.195 640.857 519.195 640.857 517.772 636.226C518.432 635.896 519.092 635.566 519.772 635.226C519.308 633.463 519.308 633.463 518.834 631.664C517.59 626.108 517.311 620.562 516.987 614.89C516.749 603.764 516.749 603.764 513.772 593.289C512.352 590.36 512.213 587.447 511.772 584.226C511.306 581.661 510.826 579.099 510.334 576.539C509.048 569.783 507.865 563.016 506.772 556.226C506.112 556.226 505.452 556.226 504.772 556.226C505.102 555.236 505.432 554.246 505.772 553.226C505.335 551.001 505.335 551.001 504.522 548.539C502.383 541.204 501.101 533.741 499.772 526.226C499.112 526.226 498.452 526.226 497.772 526.226C498.102 524.906 498.432 523.586 498.772 522.226C490.856 520.548 483.164 519.839 475.084 519.601C473.989 519.562 472.894 519.524 471.766 519.484C469.101 519.391 466.437 519.305 463.772 519.226C463.912 521.685 464.059 524.143 464.209 526.601C464.249 527.3 464.288 527.998 464.329 528.718C464.515 532.6 464.515 532.6 465.772 536.226C466.432 536.226 467.092 536.226 467.772 536.226C467.797 536.937 467.822 537.649 467.848 538.382C467.964 541.601 468.087 544.82 468.209 548.039C468.249 549.158 468.288 550.278 468.329 551.431C468.37 552.504 468.412 553.578 468.456 554.683C468.492 555.673 468.529 556.663 468.567 557.682C468.68 560.348 468.68 560.348 469.772 563.226C470.057 565.361 470.303 567.502 470.526 569.644C470.724 571.525 470.724 571.525 470.926 573.443C471.061 574.753 471.196 576.064 471.334 577.414C471.474 578.749 471.614 580.084 471.754 581.419C472.097 584.688 472.436 587.957 472.772 591.226C473.432 591.226 474.092 591.226 474.772 591.226C474.586 591.866 474.401 592.505 474.209 593.164C474.065 593.844 473.921 594.525 473.772 595.226C474.102 595.556 474.432 595.886 474.772 596.226C475.847 601.792 475.617 606.63 474.772 612.226C475.141 615.533 475.141 615.533 475.772 618.226C474.287 618.721 474.287 618.721 472.772 619.226C472.442 619.886 472.112 620.546 471.772 621.226C468.897 622.039 468.897 622.039 465.772 622.226C465.314 621.736 464.857 621.245 464.385 620.74C462.861 619.003 462.861 619.003 460.495 618.993C459.617 619.057 458.739 619.121 457.834 619.187C456.856 619.246 455.878 619.306 454.87 619.367C453.336 619.483 453.336 619.483 451.772 619.601C449.772 619.742 447.772 619.874 445.772 620C444.885 620.066 443.998 620.132 443.084 620.2C440.217 620.223 437.546 620.029 434.699 619.735C429.322 619.232 424.016 619.09 418.619 619.113C417.671 619.112 416.723 619.112 415.747 619.112C412.658 619.113 409.568 619.121 406.479 619.128C404.32 619.13 402.161 619.132 400.002 619.133C394.352 619.137 388.701 619.146 383.051 619.157C377.272 619.168 371.494 619.172 365.715 619.177C354.401 619.188 343.086 619.205 331.772 619.226C331.442 618.566 331.112 617.906 330.772 617.226C330.442 617.556 330.112 617.886 329.772 618.226C326.586 618.286 323.416 618.246 320.231 618.187C316.376 618.059 316.376 618.059 312.772 619.226C312.442 618.566 312.112 617.906 311.772 617.226C311.772 617.886 311.772 618.546 311.772 619.226C310.122 619.226 308.472 619.226 306.772 619.226C306.772 618.566 306.772 617.906 306.772 617.226C305.473 617.412 304.173 617.597 302.834 617.789C300.62 618.105 300.62 618.105 298.772 618.226C298.442 617.896 298.112 617.566 297.772 617.226C295.052 617.098 292.368 617.041 289.647 617.039C288.899 617.026 288.152 617.014 287.381 617.002C282.463 616.989 278.437 617.661 273.772 619.226C273.772 618.566 273.772 617.906 273.772 617.226C273.112 617.226 272.452 617.226 271.772 617.226C271.772 617.886 271.772 618.546 271.772 619.226C270.122 619.226 268.472 619.226 266.772 619.226C266.442 618.566 266.112 617.906 265.772 617.226C265.249 617.389 264.725 617.551 264.186 617.718C261.134 618.36 258.264 618.358 255.147 618.351C253.426 618.355 253.426 618.355 251.67 618.359C248.772 618.226 248.772 618.226 246.772 617.226C246.772 617.886 246.772 618.546 246.772 619.226C216.082 619.226 185.392 619.226 153.772 619.226C153.442 618.566 153.112 617.906 152.772 617.226C152.772 617.886 152.772 618.546 152.772 619.226C151.493 619.206 150.214 619.185 148.897 619.164C145.646 619.154 142.553 619.352 139.334 619.789C131.518 620.683 123.592 619.78 115.772 619.226C115.442 619.886 115.112 620.546 114.772 621.226C112.18 622.337 110.897 622.259 108.147 621.539C105.269 619.948 104.868 619.296 103.772 616.226C103.574 613.454 103.488 610.808 103.522 608.039C103.527 607.251 103.533 606.463 103.538 605.651C103.626 600.058 104.01 594.532 104.647 588.976C104.725 588.286 104.804 587.596 104.884 586.886C105.27 583.881 105.804 581.13 106.776 578.257C107.998 574.538 108.434 570.85 108.834 566.976C108.958 565.85 108.958 565.85 109.084 564.701C109.246 563.215 109.405 561.728 109.56 560.241C109.739 558.54 109.928 556.84 110.12 555.14C110.497 551.689 110.775 548.389 110.709 544.914C110.821 538.315 111.057 530.798 114.772 525.226C114.939 522.101 114.939 522.101 114.772 519.226C109.491 519.174 104.234 519.365 98.9594 519.601Z" fill="#FCC758"/>
<path d="M261.073 84.6987C263.96 85.2628 266.06 85.0705 268.959 84.6636C274.604 84.0619 279.31 84.8652 284.772 86.2261C288.679 87.1646 290.716 87.0155 294.549 85.7769C301.581 84.0345 308.689 83.9785 315.772 85.2261C316.576 85.0405 317.381 84.8548 318.209 84.6636C321.773 84.0552 324.324 85.1916 327.772 86.2261C329.208 86.3518 330.646 86.4549 332.084 86.5386C336.74 86.9719 340.078 88.7466 344.143 90.9605C347.781 92.7117 351.496 93.5821 355.424 94.4527C358.038 95.3138 358.867 96.3112 360.772 98.2261C363.459 99.3727 363.459 99.3727 366.397 100.289C368.207 100.88 370.005 101.515 371.772 102.226C372.102 102.886 372.432 103.546 372.772 104.226C373.762 104.226 374.752 104.226 375.772 104.226C376.762 105.711 376.762 105.711 377.772 107.226C378.721 107.68 379.669 108.134 380.647 108.601C384.081 110.387 385.399 112.241 387.772 115.226C389.424 115.928 391.091 116.596 392.772 117.226C394.124 118.54 395.461 119.87 396.772 121.226C397.432 121.226 398.092 121.226 398.772 121.226C399.112 122.556 399.112 122.556 399.459 123.914C400.968 127.721 402.828 129.423 405.772 132.226C407.142 134.201 408.479 136.2 409.772 138.226C410.576 139.216 410.576 139.216 411.397 140.226C414.912 145.339 414.978 150.257 414.772 156.226C415.432 156.226 416.092 156.226 416.772 156.226C417.868 159.785 417.939 163.14 417.959 166.851C417.974 167.998 417.988 169.146 418.002 170.328C417.772 173.226 417.772 173.226 415.772 175.226C415.275 177.089 415.275 177.089 414.959 179.226C413.86 184.724 411.446 189.337 408.772 194.226C407.782 194.226 406.792 194.226 405.772 194.226C405.628 194.969 405.483 195.711 405.334 196.476C402.975 200.629 399.215 201.809 394.772 203.226C393.782 203.226 392.792 203.226 391.772 203.226C391.772 203.886 391.772 204.546 391.772 205.226C386.559 206.9 381.732 207.693 376.272 207.976C375.105 208.039 375.105 208.039 373.914 208.102C365.597 208.437 355.053 208.697 347.772 204.226C347.112 203.566 346.452 202.906 345.772 202.226C344.679 201.628 343.586 201.03 342.459 200.414C338.974 198.463 336.54 196.129 333.772 193.226C331.647 191.388 329.504 189.576 327.346 187.777C326.827 187.265 326.307 186.753 325.772 186.226C325.772 185.566 325.772 184.906 325.772 184.226C325.153 183.917 324.534 183.607 323.897 183.289C322.522 182.601 321.147 181.914 319.772 181.226C319.772 180.566 319.772 179.906 319.772 179.226C319.194 179.123 318.617 179.02 318.022 178.914C314.536 177.848 312.317 175.772 309.772 173.226C303.155 170.833 296.315 169.927 289.334 169.476C288.661 169.432 287.987 169.387 287.293 169.341C281.527 169.048 277.271 169.832 272.084 172.289C267.982 174.226 267.982 174.226 265.772 174.226C265.772 174.886 265.772 175.546 265.772 176.226C264.782 176.226 263.792 176.226 262.772 176.226C262.277 177.711 262.277 177.711 261.772 179.226C260.782 179.226 259.792 179.226 258.772 179.226C258.772 179.886 258.772 180.546 258.772 181.226C257.287 181.721 257.287 181.721 255.772 182.226C254.424 183.881 253.093 185.55 251.772 187.226C250.106 188.713 248.397 190.152 246.647 191.539C245.344 192.585 245.344 192.585 244.014 193.652C241.772 195.226 241.772 195.226 239.772 195.226C239.751 195.824 239.731 196.422 239.709 197.039C238.219 200.516 235.151 200.863 231.772 202.226C231.112 203.216 230.452 204.206 229.772 205.226C227.268 205.921 227.268 205.921 224.209 206.351C223.121 206.504 222.034 206.658 220.913 206.816C219.876 206.951 218.84 207.087 217.772 207.226C217.024 207.351 216.277 207.476 215.506 207.605C206.44 208.972 196.351 208.452 187.772 205.226C186.747 204.859 185.722 204.491 184.666 204.113C183.649 203.717 182.632 203.321 181.584 202.914C180.56 202.526 179.535 202.138 178.479 201.738C175.31 199.968 174.525 198.332 172.772 195.226C172.096 194.896 171.421 194.566 170.725 194.226C167.944 192.802 167.577 191.108 166.522 188.226C166.019 186.896 166.019 186.896 165.506 185.539C164.772 183.226 164.772 183.226 164.772 181.226C164.112 181.226 163.452 181.226 162.772 181.226C159.744 167.833 160.234 152.626 166.772 140.226C168.237 138.258 169.77 136.484 171.463 134.71C173.181 132.762 173.825 130.626 174.772 128.226C176.398 126.52 178.062 124.848 179.772 123.226C180.102 122.566 180.432 121.906 180.772 121.226C181.762 121.226 182.752 121.226 183.772 121.226C183.999 120.607 184.226 119.989 184.459 119.351C186.162 116.595 187.799 116.341 190.772 115.226C191.432 114.236 192.092 113.246 192.772 112.226C193.432 112.226 194.092 112.226 194.772 112.226C195.267 110.741 195.267 110.741 195.772 109.226C201.978 104.313 208.986 101.071 216.338 98.2691C218.893 97.3524 218.893 97.3524 220.772 95.2261C222.444 94.7317 224.135 94.3031 225.834 93.9136C229.687 92.9381 232.645 91.8394 235.959 89.6636C241.371 86.3751 247.22 86.1494 253.393 85.5855C256.441 85.2613 258.176 84.1037 261.073 84.6987Z" fill="#FCC758"/>
<path d="M258.772 321.226C259.267 323.206 259.267 323.206 259.772 325.226C259.112 325.226 258.452 325.226 257.772 325.226C257.772 325.886 257.772 326.546 257.772 327.226C258.432 327.226 259.092 327.226 259.772 327.226C259.751 328.031 259.731 328.835 259.709 329.664C259.475 332.16 259.475 332.16 260.772 333.226C260.859 335.226 260.879 337.229 260.869 339.23C260.865 341.052 260.865 341.052 260.86 342.912C260.847 344.831 260.847 344.831 260.834 346.789C260.83 348.072 260.825 349.355 260.821 350.677C260.809 353.86 260.792 357.043 260.772 360.226C258.137 361.104 256.399 361.392 253.682 361.507C252.898 361.545 252.113 361.582 251.305 361.621C250.49 361.655 249.674 361.69 248.834 361.726C247.221 361.795 245.608 361.868 243.994 361.945C243.28 361.975 242.566 362.005 241.831 362.037C239.722 362.231 237.82 362.703 235.772 363.226C232.572 363.478 229.377 363.666 226.172 363.832C223.157 364.005 220.654 364.265 217.772 365.226C213.109 365.463 208.44 365.411 203.772 365.414C201.827 365.432 201.827 365.432 199.842 365.451C198.602 365.453 197.362 365.455 196.084 365.457C194.946 365.461 193.808 365.465 192.635 365.469C189.772 365.226 189.772 365.226 186.772 363.226C186.507 359.05 186.453 356.183 187.772 352.226C187.917 350.819 188.018 349.408 188.088 347.996C188.13 347.193 188.172 346.391 188.215 345.564C188.255 344.731 188.294 343.897 188.334 343.039C188.378 342.194 188.421 341.349 188.465 340.478C188.571 338.394 188.672 336.31 188.772 334.226C193.416 331.97 197.955 331.611 203.022 331.164C204.352 331.038 204.352 331.038 205.709 330.91C211.924 330.341 218.139 329.944 224.37 329.62C230.021 329.311 235.643 328.805 241.272 328.226C242.104 328.143 242.936 328.06 243.794 327.974C247.599 327.89 247.599 327.89 250.772 326.226C249.452 325.896 248.132 325.566 246.772 325.226C246.772 324.236 246.772 323.246 246.772 322.226C250.836 321.452 254.636 321.128 258.772 321.226Z" fill="#44624A"/>
<path d="M226.647 139.226C230.837 141.907 233.107 144.514 234.772 149.226C235.845 159.08 235.845 159.08 233.772 163.226C233.112 163.226 232.452 163.226 231.772 163.226C231.504 164.03 231.236 164.835 230.959 165.664C230.568 166.509 230.176 167.355 229.772 168.226C228.782 168.556 227.792 168.886 226.772 169.226C226.772 169.886 226.772 170.546 226.772 171.226C224.132 171.886 221.492 172.546 218.772 173.226C218.772 173.886 218.772 174.546 218.772 175.226C211.822 175.568 205.222 175.06 198.772 172.226C194.164 167.172 193.347 162.676 193.436 156C193.929 151.927 195.413 149.543 197.772 146.226C198.432 146.226 199.092 146.226 199.772 146.226C200.01 145.613 200.249 144.999 200.495 144.367C205.128 136.602 219.011 136.692 226.647 139.226Z" fill="#E5E5E5"/>
<path d="M374.772 142.226C380.03 147.314 382.898 151.062 383.022 158.539C382.979 163.147 382.512 166.37 379.772 170.226C378.782 170.556 377.792 170.886 376.772 171.226C376.277 172.216 376.277 172.216 375.772 173.226C369.685 175.218 364.142 175.461 357.772 175.226C357.442 174.566 357.112 173.906 356.772 173.226C354.458 172.495 352.124 171.825 349.772 171.226C349.772 170.566 349.772 169.906 349.772 169.226C348.782 168.896 347.792 168.566 346.772 168.226C343.772 163.893 343.772 163.893 343.772 161.226C343.112 161.226 342.452 161.226 341.772 161.226C341.253 154.31 340.928 148.517 345.249 142.789C352.448 135.404 366.599 137.055 374.772 142.226Z" fill="#ECECEC"/>
<path d="M328.772 10.226C328.442 11.216 328.112 12.206 327.772 13.226C325.374 14.1401 325.374 14.1401 322.397 14.851C321.42 15.0908 320.443 15.3306 319.436 15.5776C318.117 15.8986 318.117 15.8986 316.772 16.226C315.782 16.556 314.792 16.886 313.772 17.226C313.772 17.886 313.772 18.546 313.772 19.226C314.855 19.4117 314.855 19.4117 315.959 19.601C318.729 20.2165 321.169 21.1105 323.772 22.226C323.772 23.216 323.772 24.206 323.772 25.226C325.092 24.896 326.412 24.566 327.772 24.226C327.772 24.886 327.772 25.546 327.772 26.226C323.68 25.7877 319.991 25.288 316.022 24.1635C310.688 22.7233 305.251 23.0617 299.772 23.226C299.772 23.886 299.772 24.546 299.772 25.226C298.452 25.226 297.132 25.226 295.772 25.226C295.442 26.216 295.112 27.206 294.772 28.226C293.782 28.226 292.792 28.226 291.772 28.226C291.772 28.886 291.772 29.546 291.772 30.226C292.844 30.1848 293.917 30.1435 295.022 30.101C298.429 30.2146 299.979 30.4388 302.772 32.226C302.772 32.886 302.772 33.546 302.772 34.226C303.411 34.3498 304.051 34.4735 304.709 34.601C305.73 34.9104 305.73 34.9104 306.772 35.226C307.267 36.216 307.267 36.216 307.772 37.226C303.482 36.896 299.192 36.566 294.772 36.226C294.772 35.566 294.772 34.906 294.772 34.226C291.292 34.1198 288.131 34.2648 284.772 35.226C280.302 39.6251 279.006 48.1992 278.772 54.226C279.646 56.988 279.646 56.988 280.772 59.226C277.611 57.8562 276.779 57.237 274.772 54.226C274.688 50.6206 274.777 47.0741 274.938 43.4741C275.051 39.0104 274.974 36.6283 271.772 33.226C271.772 32.566 271.772 31.906 271.772 31.226C272.514 31.391 273.257 31.556 274.022 31.726C276.962 32.3453 276.962 32.3453 280.772 32.226C283.135 29.7122 283.135 29.7122 284.534 27.8003C285.772 26.226 285.772 26.226 288.084 24.2885C290.512 21.3213 290.057 18.9352 289.772 15.226C291.092 15.556 292.412 15.886 293.772 16.226C294.102 17.546 294.432 18.866 294.772 20.226C295.438 19.8999 296.105 19.5738 296.792 19.2378C302.556 16.5046 308.146 14.3982 314.334 12.851C316.945 12.2219 316.945 12.2219 320.084 11.0385C323.094 10.1287 325.645 10.0771 328.772 10.226Z" fill="#44624A"/>
<path d="M472.647 63.6636C476.235 67.9902 477.095 70.6247 476.709 76.2886C476.657 77.3314 476.604 78.3743 476.549 79.4487C475.772 82.2261 475.772 82.2261 473.588 84.0972C470.772 85.2261 470.772 85.2261 464.772 85.2261C464.772 80.9361 464.772 76.6461 464.772 72.2261C464.112 71.8961 463.452 71.5661 462.772 71.2261C462.772 70.5661 462.772 69.9061 462.772 69.2261C456.561 69.0224 451.04 69.5941 444.959 70.8862C444.238 70.9984 443.516 71.1105 442.772 71.2261C441.772 70.2261 441.772 70.2261 441.272 67.4761C441.833 63.8285 442.149 63.5046 444.959 61.4136C453.781 55.9088 464.822 57.0292 472.647 63.6636Z" fill="#FCC758"/>
<path d="M134.147 61.9761C136.772 64.2261 136.772 64.2261 137.147 67.4761C136.961 68.8373 136.961 68.8373 136.772 70.2261C133.069 71.3951 130.733 70.7513 127.01 69.7065C123.279 68.9055 119.568 69.0679 115.772 69.2261C115.772 69.8861 115.772 70.5461 115.772 71.2261C114.782 71.7211 114.782 71.7211 113.772 72.2261C113.697 76.1114 113.799 79.4755 114.772 83.2261C114.442 83.8861 114.112 84.5461 113.772 85.2261C109.937 85.672 108.215 85.5214 104.959 83.3511C101.981 79.0962 101.327 75.3826 101.772 70.2261C104.501 64.8614 104.501 64.8614 107.772 63.2261C108.424 61.2014 108.424 61.2014 108.772 59.2261C118.142 57.8875 125.483 57.4836 134.147 61.9761Z" fill="#FCC758"/>
<path d="M220.084 145.664C220.967 145.951 221.85 146.238 222.76 146.535C223.756 146.877 223.756 146.877 224.772 147.226C224.772 148.216 224.772 149.206 224.772 150.226C225.432 150.226 226.092 150.226 226.772 150.226C227.555 159.195 227.555 159.195 224.397 163.351C221.772 165.226 221.772 165.226 219.772 165.226C219.772 165.886 219.772 166.546 219.772 167.226C218.122 167.226 216.472 167.226 214.772 167.226C214.442 167.886 214.112 168.546 213.772 169.226C213.442 168.566 213.112 167.906 212.772 167.226C211.658 167.123 210.544 167.02 209.397 166.914C205.772 166.226 205.772 166.226 203.834 164.226C202.386 160.136 201.917 156.51 202.772 152.226C205.147 149.289 205.147 149.289 207.772 147.226C208.432 146.566 209.092 145.906 209.772 145.226C213.695 144.003 216.226 144.377 220.084 145.664Z" fill="#0E0E0E"/>
<path d="M359.772 144.226C365.672 145.326 368.916 146.318 372.772 151.226C373.855 154.307 373.76 156.761 373.334 159.976C373.233 160.775 373.131 161.575 373.026 162.398C372.9 163.303 372.9 163.303 372.772 164.226C372.112 164.226 371.452 164.226 370.772 164.226C370.772 164.886 370.772 165.546 370.772 166.226C368.462 166.226 366.152 166.226 363.772 166.226C363.772 167.216 363.772 168.206 363.772 169.226C363.112 169.226 362.452 169.226 361.772 169.226C361.772 168.566 361.772 167.906 361.772 167.226C360.864 167.144 359.957 167.061 359.022 166.976C354.331 165.894 352.791 163.561 349.959 159.851C348.436 156.483 348.797 154.75 349.772 151.226C349.958 150.463 350.143 149.7 350.334 148.914C352.163 146.766 353.149 146.83 355.897 146.476C357.176 146.394 358.454 146.311 359.772 146.226C359.772 145.566 359.772 144.906 359.772 144.226Z" fill="#0A0A0A"/>
<path d="M258.772 321.226C259.267 323.206 259.267 323.206 259.772 325.226C259.112 325.226 258.452 325.226 257.772 325.226C257.772 325.886 257.772 326.546 257.772 327.226C258.432 327.226 259.092 327.226 259.772 327.226C259.751 328.031 259.731 328.835 259.709 329.664C259.476 332.16 259.476 332.16 260.772 333.226C260.86 335.226 260.879 337.229 260.87 339.23C260.866 340.445 260.863 341.66 260.86 342.912C260.847 344.831 260.847 344.831 260.834 346.789C260.83 348.072 260.825 349.355 260.821 350.677C260.809 353.86 260.792 357.043 260.772 360.226C259.782 359.896 258.792 359.566 257.772 359.226C258.432 359.226 259.092 359.226 259.772 359.226C259.617 357.339 259.617 357.339 259.459 355.414C259.401 354.706 259.343 353.998 259.284 353.269C258.948 351.133 258.948 351.133 257.268 349.843C255.056 347.452 255.295 345.36 255.147 342.164C255.051 338.041 255.051 338.041 253.772 334.226C251.53 333.637 251.53 333.637 248.772 334.226C247.055 335.939 245.636 337.74 244.202 339.695C243.73 340.2 243.258 340.706 242.772 341.226C241.782 341.226 240.792 341.226 239.772 341.226C239.772 339.906 239.772 338.586 239.772 337.226C239.112 337.226 238.452 337.226 237.772 337.226C237.112 336.236 236.452 335.246 235.772 334.226C234.452 333.896 233.132 333.566 231.772 333.226C231.772 339.496 231.772 345.766 231.772 352.226C231.442 352.226 231.112 352.226 230.772 352.226C230.772 345.296 230.772 338.366 230.772 331.226C228.462 331.226 226.152 331.226 223.772 331.226C223.772 330.896 223.772 330.566 223.772 330.226C224.554 330.14 225.337 330.055 226.143 329.967C229.666 329.578 233.188 329.184 236.709 328.789C237.941 328.654 239.173 328.519 240.442 328.38C241.612 328.248 242.782 328.116 243.987 327.98C245.613 327.799 245.613 327.799 247.272 327.615C249.707 327.488 249.707 327.488 250.772 326.226C249.452 325.896 248.132 325.566 246.772 325.226C246.772 324.236 246.772 323.246 246.772 322.226C250.836 321.452 254.636 321.128 258.772 321.226Z" fill="#44624A"/>
<path d="M231.772 333.226C234.247 333.721 234.247 333.721 236.772 334.226C237.102 335.216 237.432 336.206 237.772 337.226C238.432 337.226 239.092 337.226 239.772 337.226C239.772 338.546 239.772 339.866 239.772 341.226C240.762 341.226 241.752 341.226 242.772 341.226C243.019 340.649 243.267 340.071 243.522 339.476C244.994 336.827 246.402 335.122 248.772 333.226C251.397 332.789 251.397 332.789 253.772 333.226C256.018 336.596 256.104 338.192 256.334 342.164C256.546 345.647 256.793 348.87 257.772 352.226C256.122 352.556 254.472 352.886 252.772 353.226C251.181 348.353 250.56 344.418 250.772 339.226C247.484 342.336 244.935 345.242 242.772 349.226C239.905 348.653 238.911 348.365 236.772 346.226C236.504 347.195 236.236 348.165 235.959 349.164C235.372 350.68 235.372 350.68 234.772 352.226C233.782 352.556 232.792 352.886 231.772 353.226C231.772 346.626 231.772 340.026 231.772 333.226Z" fill="#FCC758"/>
<path d="M301.772 176.226C302.522 178.476 302.522 178.476 302.772 181.226C299.984 185.176 296.302 186.792 291.772 188.226C285.915 188.526 281.474 186.585 276.772 183.226C275.329 180.25 275.703 179.432 276.772 176.226C284.794 172.913 293.69 173.353 301.772 176.226Z" fill="#FCC758"/>
<path d="M223.772 336.226C226.887 338.389 227.673 339.876 228.709 343.539C228.786 348.083 227.916 350.256 225.772 354.226C223.431 355.397 221.878 355.425 219.272 355.476C218.478 355.502 217.684 355.528 216.866 355.554C216.175 355.446 215.484 355.338 214.772 355.226C212.277 351.484 212.396 349.664 212.772 345.226C215.048 339.59 217.09 335.085 223.772 336.226Z" fill="#FCC758"/>
<path d="M282.772 29.2261C286.397 29.0386 286.397 29.0386 289.772 29.2261C289.772 29.8861 289.772 30.5461 289.772 31.2261C294.062 31.5561 298.352 31.8861 302.772 32.2261C302.772 32.8861 302.772 33.5461 302.772 34.2261C303.731 34.4117 303.731 34.4117 304.709 34.6011C305.73 34.9104 305.73 34.9104 306.772 35.2261C307.267 36.2161 307.267 36.2161 307.772 37.2261C303.482 36.8961 299.192 36.5661 294.772 36.2261C294.772 35.5661 294.772 34.9061 294.772 34.2261C291.292 34.1198 288.131 34.2648 284.772 35.2261C280.302 39.6252 279.006 48.1992 278.772 54.2261C279.646 56.9881 279.646 56.9881 280.772 59.2261C277.611 57.8562 276.779 57.237 274.772 54.2261C274.688 50.6207 274.777 47.0742 274.938 43.4741C275.051 39.0104 274.974 36.6283 271.772 33.2261C271.772 32.5661 271.772 31.9061 271.772 31.2261C272.886 31.4736 272.886 31.4736 274.022 31.7261C276.962 32.3453 276.962 32.3453 280.772 32.2261C281.432 31.2361 282.092 30.2461 282.772 29.2261Z" fill="#44624A"/>
<path d="M341.772 149.226C342.102 149.226 342.432 149.226 342.772 149.226C343.102 152.196 343.432 155.166 343.772 158.226C347.548 158.524 347.548 158.524 349.772 157.226C350.267 158.319 350.762 159.412 351.272 160.539C353.816 165.092 356.891 165.843 361.772 167.226C361.772 167.886 361.772 168.546 361.772 169.226C362.432 169.226 363.092 169.226 363.772 169.226C363.772 168.236 363.772 167.246 363.772 166.226C365.752 166.226 367.732 166.226 369.772 166.226C369.442 166.886 369.112 167.546 368.772 168.226C368.112 168.226 367.452 168.226 366.772 168.226C366.772 169.546 366.772 170.866 366.772 172.226C367.762 172.226 368.752 172.226 369.772 172.226C369.772 172.886 369.772 173.546 369.772 174.226C367.247 175.488 365.46 175.325 362.647 175.289C361.737 175.28 360.827 175.271 359.889 175.261C358.841 175.244 358.841 175.244 357.772 175.226C357.442 174.566 357.112 173.906 356.772 173.226C354.458 172.495 352.124 171.825 349.772 171.226C349.772 170.566 349.772 169.906 349.772 169.226C348.782 168.896 347.792 168.566 346.772 168.226C343.772 163.893 343.772 163.893 343.772 161.226C343.112 161.226 342.452 161.226 341.772 161.226C341.772 157.266 341.772 153.306 341.772 149.226Z" fill="#ECECEC"/>
<path d="M156.772 235.226C157.102 235.886 157.432 236.546 157.772 237.226C160.029 237.619 160.029 237.619 162.647 237.726C166.352 237.942 167.581 238.099 170.772 240.226C170.772 244.226 170.772 244.226 169.209 245.976C162.658 249.336 155.363 246.228 148.772 244.226C148.442 242.576 148.112 240.926 147.772 239.226C151.143 237.728 152.976 237.226 156.772 237.226C156.772 236.566 156.772 235.906 156.772 235.226Z" fill="#FCC758"/>
<path d="M426.772 237.226C427.432 237.886 428.092 238.546 428.772 239.226C428.397 241.851 428.397 241.851 427.772 244.226C414.1 248.847 414.1 248.847 408.334 246.039C406.292 243.669 406.648 242.267 406.772 239.226C413.759 237.165 419.586 235.496 426.772 237.226Z" fill="#FCC758"/>
<path d="M427.834 224.414C429.153 226.963 428.569 228.543 427.772 231.226C421.805 232.552 415.846 232.314 409.772 232.226C409.772 229.586 409.772 226.946 409.772 224.226C423.983 222.196 423.983 222.196 427.834 224.414Z" fill="#FCC758"/>
<path d="M159.772 223.226C162.199 223.739 164.417 224.424 166.772 225.226C166.772 227.536 166.772 229.846 166.772 232.226C160.366 232.435 154.842 232.384 148.772 230.226C148.442 228.576 148.112 226.926 147.772 225.226C151.839 222.515 155.002 222.816 159.772 223.226Z" fill="#FCC758"/>
<path d="M232.772 147.226C234.772 149.226 234.772 149.226 235.002 151.976C234.981 153.585 234.981 153.585 234.959 155.226C234.95 156.835 234.95 156.835 234.94 158.476C234.772 161.226 234.772 161.226 233.772 163.226C233.112 163.226 232.452 163.226 231.772 163.226C231.504 164.03 231.236 164.835 230.959 165.664C230.568 166.509 230.176 167.355 229.772 168.226C228.782 168.556 227.792 168.886 226.772 169.226C226.442 169.886 226.112 170.546 225.772 171.226C225.112 170.896 224.452 170.566 223.772 170.226C223.772 168.906 223.772 167.586 223.772 166.226C222.452 165.896 221.132 165.566 219.772 165.226C220.7 165.102 220.7 165.102 221.647 164.976C223.892 164.429 223.892 164.429 224.877 162.5C226.18 159.188 226.168 155.994 226.331 152.468C226.476 151.728 226.622 150.988 226.772 150.226C227.762 149.566 228.752 148.906 229.772 148.226C229.772 149.216 229.772 150.206 229.772 151.226C229.112 151.226 228.452 151.226 227.772 151.226C228.762 153.536 229.752 155.846 230.772 158.226C231.432 158.226 232.092 158.226 232.772 158.226C232.772 154.596 232.772 150.966 232.772 147.226Z" fill="#D9D9D9"/>
<path d="M202.713 337.128C204.506 337.146 204.506 337.146 206.334 337.164C208.131 337.177 208.131 337.177 209.963 337.191C210.89 337.203 211.817 337.214 212.772 337.226C212.772 338.546 212.772 339.866 212.772 341.226C211.122 341.226 209.472 341.226 207.772 341.226C207.772 346.176 207.772 351.126 207.772 356.226C206.782 356.226 205.792 356.226 204.772 356.226C203.39 353.462 203.677 351.18 203.709 348.101C203.718 347.005 203.728 345.91 203.737 344.781C203.748 343.938 203.76 343.095 203.772 342.226C201.792 342.226 199.812 342.226 197.772 342.226C198.894 337.255 198.894 337.255 202.713 337.128Z" fill="#FCC758"/>
<path d="M283.772 29.2261C285.752 29.2261 287.732 29.2261 289.772 29.2261C289.772 29.8861 289.772 30.5461 289.772 31.2261C294.062 31.5561 298.352 31.8861 302.772 32.2261C302.772 32.8861 302.772 33.5461 302.772 34.2261C303.411 34.3498 304.051 34.4736 304.709 34.6011C305.73 34.9104 305.73 34.9104 306.772 35.2261C307.102 35.8861 307.432 36.5461 307.772 37.2261C303.482 36.8961 299.192 36.5661 294.772 36.2261C294.772 35.5661 294.772 34.9061 294.772 34.2261C293.125 34.3396 291.48 34.4672 289.834 34.6011C288.918 34.6707 288.001 34.7403 287.057 34.812C286.303 34.9487 285.549 35.0853 284.772 35.2261C284.442 35.8861 284.112 36.5461 283.772 37.2261C283.112 37.2261 282.452 37.2261 281.772 37.2261C282.647 31.4761 282.647 31.4761 283.772 29.2261Z" fill="#44624A"/>
<path d="M227.772 141.226C229.647 141.726 229.647 141.726 231.772 143.226C233.519 148.38 233.997 152.819 233.772 158.226C232.782 158.556 231.792 158.886 230.772 159.226C228.207 156.661 228.232 154.749 227.772 151.226C228.432 151.226 229.092 151.226 229.772 151.226C229.442 150.566 229.112 149.906 228.772 149.226C227.782 149.556 226.792 149.886 225.772 150.226C225.772 148.906 225.772 147.586 225.772 146.226C224.782 146.226 223.792 146.226 222.772 146.226C223.102 145.236 223.432 144.246 223.772 143.226C225.092 143.226 226.412 143.226 227.772 143.226C227.772 142.566 227.772 141.906 227.772 141.226Z" fill="#F6F6F6"/>
<path d="M221.772 330.226C221.442 331.546 221.112 332.866 220.772 334.226C221.762 334.886 222.752 335.546 223.772 336.226C220.802 336.226 217.832 336.226 214.772 336.226C214.442 337.876 214.112 339.526 213.772 341.226C213.442 339.906 213.112 338.586 212.772 337.226C209.142 337.226 205.512 337.226 201.772 337.226C205.772 335.226 205.772 335.226 207.772 335.226C207.772 334.236 207.772 333.246 207.772 332.226C205.462 332.226 203.152 332.226 200.772 332.226C200.772 331.896 200.772 331.566 200.772 331.226C207.788 330.627 214.729 330.088 221.772 330.226Z" fill="#44624A"/>
<path d="M223.772 166.226C223.772 167.546 223.772 168.866 223.772 170.226C224.432 170.556 225.092 170.886 225.772 171.226C220.448 173.888 216.74 174.823 210.772 174.226C208.772 172.726 208.772 172.726 207.772 171.226C208.432 171.226 209.092 171.226 209.772 171.226C209.772 169.906 209.772 168.586 209.772 167.226C211.355 167.057 212.938 166.891 214.522 166.726C215.404 166.633 216.285 166.54 217.194 166.445C219.772 166.226 219.772 166.226 223.772 166.226Z" fill="#F5F5F5"/>
<path d="M347.772 143.226C348.762 143.226 349.752 143.226 350.772 143.226C350.979 149.015 350.364 153.655 348.772 159.226C347.122 159.556 345.472 159.886 343.772 160.226C342.528 157.739 342.639 156 342.647 153.226C342.644 152.339 342.642 151.452 342.639 150.539C342.772 148.226 342.772 148.226 343.772 146.226C344.432 146.226 345.092 146.226 345.772 146.226C346.102 145.566 346.432 144.906 346.772 144.226C346.772 144.886 346.772 145.546 346.772 146.226C347.432 146.226 348.092 146.226 348.772 146.226C348.442 145.236 348.112 144.246 347.772 143.226Z" fill="#EFEFEF"/>
<path d="M231.772 333.226C234.247 333.721 234.247 333.721 236.772 334.226C236.772 335.546 236.772 336.866 236.772 338.226C237.432 338.226 238.092 338.226 238.772 338.226C238.772 339.216 238.772 340.206 238.772 341.226C237.452 341.556 236.132 341.886 234.772 342.226C234.772 345.526 234.772 348.826 234.772 352.226C233.782 352.556 232.792 352.886 231.772 353.226C231.772 346.626 231.772 340.026 231.772 333.226Z" fill="#FCC758"/>
<path d="M341.772 149.226C342.102 149.226 342.432 149.226 342.772 149.226C343.102 152.196 343.432 155.166 343.772 158.226C347.548 158.524 347.548 158.524 349.772 157.226C350.749 158.984 351.725 160.742 352.702 162.5C353.781 164.387 353.781 164.387 355.772 166.226C353.462 166.886 351.152 167.546 348.772 168.226C347.063 166.603 345.398 164.933 343.772 163.226C343.772 162.566 343.772 161.906 343.772 161.226C343.112 161.226 342.452 161.226 341.772 161.226C341.772 157.266 341.772 153.306 341.772 149.226Z" fill="#D5D5D5"/>
<path d="M223.772 336.226C224.762 336.886 225.752 337.546 226.772 338.226C226.959 341.351 226.959 341.351 226.772 344.226C225.782 343.566 224.792 342.906 223.772 342.226C223.772 341.566 223.772 340.906 223.772 340.226C222.782 340.226 221.792 340.226 220.772 340.226C220.504 341.154 220.236 342.082 219.959 343.039C218.86 345.988 218.148 347.282 215.772 349.226C215.112 348.896 214.452 348.566 213.772 348.226C214.256 340.963 214.256 340.963 216.522 337.726C219.237 335.916 220.569 335.733 223.772 336.226Z" fill="#FCC758"/>
<path d="M221.772 330.226C224.742 330.556 227.712 330.886 230.772 331.226C230.772 336.176 230.772 341.126 230.772 346.226C230.442 344.906 230.112 343.586 229.772 342.226C229.112 342.226 228.452 342.226 227.772 342.226C227.669 341.587 227.566 340.947 227.459 340.289C227.233 339.608 227.006 338.927 226.772 338.226C225.782 337.896 224.792 337.566 223.772 337.226C223.772 336.566 223.772 335.906 223.772 335.226C222.452 334.896 221.132 334.566 219.772 334.226C220.432 332.906 221.092 331.586 221.772 330.226Z" fill="#44624A"/>
<path d="M289.772 15.2261C291.092 15.5561 292.412 15.8861 293.772 16.2261C294.102 18.2061 294.432 20.1861 294.772 22.2261C294.112 22.2261 293.452 22.2261 292.772 22.2261C292.442 22.8861 292.112 23.5461 291.772 24.2261C292.432 24.2261 293.092 24.2261 293.772 24.2261C293.772 24.8861 293.772 25.5461 293.772 26.2261C294.432 26.5561 295.092 26.8861 295.772 27.2261C294.452 27.5561 293.132 27.8861 291.772 28.2261C291.772 28.8861 291.772 29.5461 291.772 30.2261C292.886 30.1848 293.999 30.1436 295.147 30.1011C298.772 30.2261 298.772 30.2261 300.772 32.2261C297.142 31.8961 293.512 31.5661 289.772 31.2261C289.772 30.5661 289.772 29.9061 289.772 29.2261C289.153 29.4323 288.534 29.6386 287.897 29.8511C287.196 29.9748 286.494 30.0986 285.772 30.2261C285.112 29.5661 284.452 28.9061 283.772 28.2261C284.576 27.6073 285.381 26.9886 286.209 26.3511C288.811 24.4844 288.811 24.4844 289.772 22.2261C289.812 19.8931 289.815 17.559 289.772 15.2261Z" fill="#44624A"/>
<path d="M239.772 324.226C245.052 324.556 250.332 324.886 255.772 325.226C255.772 325.556 255.772 325.886 255.772 326.226C250.61 328.224 245.671 328.836 240.209 329.351C238.954 329.481 238.954 329.481 237.672 329.613C233.692 330.01 229.778 330.341 225.772 330.226C226.102 329.566 226.432 328.906 226.772 328.226C229.713 327.593 229.713 327.593 233.334 327.101C234.532 326.933 235.73 326.766 236.963 326.593C237.89 326.472 238.817 326.351 239.772 326.226C239.772 325.566 239.772 324.906 239.772 324.226Z" fill="#FCC758"/>
<path d="M199.772 337.226C204.062 337.226 208.352 337.226 212.772 337.226C212.772 338.546 212.772 339.866 212.772 341.226C207.801 342.139 203.743 342.139 198.772 341.226C199.102 339.906 199.432 338.586 199.772 337.226Z" fill="#FCC758"/>
<path d="M258.772 321.226C259.102 322.546 259.432 323.866 259.772 325.226C256.284 327.551 254.871 327.561 250.772 327.226C248.397 326.226 248.397 326.226 246.772 325.226C246.772 324.236 246.772 323.246 246.772 322.226C250.836 321.452 254.636 321.128 258.772 321.226Z" fill="#FCC758"/>
<path d="M220.772 340.226C221.762 340.226 222.752 340.226 223.772 340.226C225.153 342.989 224.963 345.173 224.772 348.226C224.112 348.886 223.452 349.546 222.772 350.226C221.452 350.226 220.132 350.226 218.772 350.226C218.592 346.279 218.678 343.628 220.772 340.226Z" fill="#44624A"/>
<path d="M244.772 328.226C244.772 328.556 244.772 328.886 244.772 329.226C238.832 329.721 238.832 329.721 232.772 330.226C232.772 330.886 232.772 331.546 232.772 332.226C233.432 332.556 234.092 332.886 234.772 333.226C233.782 333.226 232.792 333.226 231.772 333.226C231.772 339.496 231.772 345.766 231.772 352.226C231.442 352.226 231.112 352.226 230.772 352.226C230.772 345.296 230.772 338.366 230.772 331.226C228.462 331.226 226.152 331.226 223.772 331.226C223.772 330.896 223.772 330.566 223.772 330.226C225.959 329.886 228.146 329.555 230.334 329.226C231.553 329.04 232.771 328.855 234.026 328.664C237.648 328.241 241.129 328.151 244.772 328.226Z" fill="#44624A"/>
<path d="M253.772 334.226C256.419 336.873 256.123 338.413 256.334 342.101C256.545 345.605 256.785 348.85 257.772 352.226C256.122 352.556 254.472 352.886 252.772 353.226C252.772 350.916 252.772 348.606 252.772 346.226C253.102 346.226 253.432 346.226 253.772 346.226C253.772 342.266 253.772 338.306 253.772 334.226Z" fill="#FCC758"/>
<path d="M274.772 42.2261C275.102 42.2261 275.432 42.2261 275.772 42.2261C275.772 44.5361 275.772 46.8461 275.772 49.2261C276.432 49.2261 277.092 49.2261 277.772 49.2261C278.102 48.5661 278.432 47.9061 278.772 47.2261C278.731 48.2779 278.689 49.3298 278.647 50.4136C278.763 53.9662 279.244 56.0747 280.772 59.2261C277.611 57.8562 276.779 57.237 274.772 54.2261C274.577 51.3081 274.577 51.3081 274.647 48.0386C274.665 46.9519 274.683 45.8652 274.702 44.7456C274.725 43.9142 274.748 43.0827 274.772 42.2261Z" fill="#44624A"/>
<path d="M356.772 139.226C355.138 140.934 353.903 142.161 351.772 143.226C351.442 143.886 351.112 144.546 350.772 145.226C350.772 144.566 350.772 143.906 350.772 143.226C349.782 143.721 349.782 143.721 348.772 144.226C348.772 144.886 348.772 145.546 348.772 146.226C347.452 146.226 346.132 146.226 344.772 146.226C345.145 143.524 345.556 142.427 347.584 140.539C351.113 138.422 352.816 137.907 356.772 139.226Z" fill="#E0E0E0"/>
<path d="M291.772 25.2261C291.772 26.8761 291.772 28.5261 291.772 30.2261C292.886 30.1848 293.999 30.1436 295.147 30.1011C298.772 30.2261 298.772 30.2261 300.772 32.2261C297.142 31.8961 293.512 31.5661 289.772 31.2261C289.772 30.5661 289.772 29.9061 289.772 29.2261C288.844 29.5354 288.844 29.5354 287.897 29.8511C287.196 29.9748 286.494 30.0986 285.772 30.2261C285.112 29.5661 284.452 28.9061 283.772 28.2261C290.647 25.2261 290.647 25.2261 291.772 25.2261Z" fill="#44624A"/>
<path d="M236.772 335.226C237.102 335.886 237.432 336.546 237.772 337.226C238.432 337.226 239.092 337.226 239.772 337.226C239.772 338.546 239.772 339.866 239.772 341.226C240.432 341.556 241.092 341.886 241.772 342.226C241.133 342.329 240.493 342.432 239.834 342.539C239.154 342.765 238.473 342.992 237.772 343.226C236.881 345.9 236.295 348.463 235.772 351.226C235.442 351.226 235.112 351.226 234.772 351.226C234.772 348.256 234.772 345.286 234.772 342.226C236.092 341.896 237.412 341.566 238.772 341.226C238.772 340.236 238.772 339.246 238.772 338.226C238.112 338.226 237.452 338.226 236.772 338.226C236.772 337.236 236.772 336.246 236.772 335.226Z" fill="#FCC758"/>
<path d="M204.772 343.226C206.981 346.54 206.997 347.571 206.897 351.414C206.879 352.315 206.861 353.216 206.842 354.144C206.808 355.175 206.808 355.175 206.772 356.226C206.112 356.226 205.452 356.226 204.772 356.226C203.2 353.083 203.54 349.668 203.772 346.226C204.102 345.236 204.432 344.246 204.772 343.226Z" fill="#FCC758"/>
<path d="M231.772 338.226C234.834 342.309 235.144 342.791 234.959 347.476C234.932 348.368 234.905 349.26 234.877 350.179C234.843 350.855 234.808 351.53 234.772 352.226C233.782 352.556 232.792 352.886 231.772 353.226C231.772 348.276 231.772 343.326 231.772 338.226Z" fill="#FCC758"/>
<path d="M247.772 334.226C249.772 335.726 249.772 335.726 251.772 338.226C252.13 340.985 251.959 343.427 251.772 346.226C251.442 346.226 251.112 346.226 250.772 346.226C250.772 343.916 250.772 341.606 250.772 339.226C248.792 340.216 248.792 340.216 246.772 341.226C246.442 340.566 246.112 339.906 245.772 339.226C244.782 339.226 243.792 339.226 242.772 339.226C244.422 337.576 246.072 335.926 247.772 334.226Z" fill="#FCC758"/>
<path d="M232.772 147.226C234.772 149.226 234.772 149.226 235.038 151.976C235.032 153.049 235.027 154.121 235.022 155.226C235.027 156.299 235.032 157.371 235.038 158.476C234.772 161.226 234.772 161.226 232.772 163.226C232.772 162.566 232.772 161.906 232.772 161.226C231.782 160.896 230.792 160.566 229.772 160.226C230.102 159.566 230.432 158.906 230.772 158.226C231.432 158.226 232.092 158.226 232.772 158.226C232.772 154.596 232.772 150.966 232.772 147.226Z" fill="#AAAAAA"/>
<path d="M216.772 341.226C217.432 341.556 218.092 341.886 218.772 342.226C218.442 344.206 218.112 346.186 217.772 348.226C216.782 348.556 215.792 348.886 214.772 349.226C213.733 346.11 213.682 345.2 214.772 342.226C215.432 341.896 216.092 341.566 216.772 341.226Z" fill="#FCC758"/>
<path d="M369.772 148.226C372.247 148.721 372.247 148.721 374.772 149.226C374.862 154.378 374.619 159.145 373.772 164.226C373.442 164.226 373.112 164.226 372.772 164.226C372.784 163.395 372.795 162.563 372.807 161.707C372.816 160.62 372.825 159.533 372.834 158.414C372.846 157.335 372.858 156.256 372.87 155.144C372.908 152.161 372.908 152.161 371.772 149.226C371.112 148.896 370.452 148.566 369.772 148.226Z" fill="#BFBFBF"/>
<path d="M248.772 339.226C249.432 339.226 250.092 339.226 250.772 339.226C250.772 341.536 250.772 343.846 250.772 346.226C250.112 345.236 249.452 344.246 248.772 343.226C247.452 344.876 246.132 346.526 244.772 348.226C244.112 347.896 243.452 347.566 242.772 347.226C243.722 345.887 244.683 344.555 245.647 343.226C246.181 342.484 246.714 341.741 247.264 340.976C247.762 340.399 248.259 339.821 248.772 339.226Z" fill="#44624A"/>
<path d="M300.772 32.2261C301.432 32.2261 302.092 32.2261 302.772 32.2261C302.772 32.8861 302.772 33.5461 302.772 34.2261C303.411 34.3498 304.051 34.4736 304.709 34.6011C305.39 34.8073 306.071 35.0136 306.772 35.2261C307.102 35.8861 307.432 36.5461 307.772 37.2261C303.482 36.8961 299.192 36.5661 294.772 36.2261C294.772 35.8961 294.772 35.5661 294.772 35.2261C297.082 35.2261 299.392 35.2261 301.772 35.2261C301.442 34.2361 301.112 33.2461 300.772 32.2261Z" fill="#44624A"/>
<path d="M271.772 31.2261C274.796 31.8141 277.79 32.4529 280.772 33.2261C280.772 33.8861 280.772 34.5461 280.772 35.2261C279.122 35.2261 277.472 35.2261 275.772 35.2261C275.442 35.8861 275.112 36.5461 274.772 37.2261C271.772 33.4761 271.772 33.4761 271.772 31.2261Z" fill="#44624A"/>
<path d="M210.772 139.226C209.959 141.164 209.959 141.164 208.772 143.226C207.782 143.556 206.792 143.886 205.772 144.226C205.772 143.566 205.772 142.906 205.772 142.226C204.122 142.886 202.472 143.546 200.772 144.226C203.285 140.457 206.201 139.226 210.772 139.226Z" fill="#D1D1D1"/>
<path d="M283.772 29.2261C284.762 29.5561 285.752 29.8861 286.772 30.2261C284.897 34.9761 284.897 34.9761 283.772 37.2261C283.112 37.2261 282.452 37.2261 281.772 37.2261C282.647 31.4761 282.647 31.4761 283.772 29.2261Z" fill="#44624A"/>
<path d="M245.772 338.226C246.459 340.039 246.459 340.039 246.772 342.226C245.334 343.976 245.334 343.976 243.772 345.226C242.782 344.896 241.792 344.566 240.772 344.226C242.142 341.065 242.761 340.233 245.772 338.226Z" fill="#FCC758"/>
<path d="M224.772 350.226C224.772 351.216 224.772 352.206 224.772 353.226C222.063 354.58 219.763 354.291 216.772 354.226C219.198 351.569 221.011 350.226 224.772 350.226Z" fill="#FCC758"/>
<path d="M351.772 166.226C352.432 166.226 353.092 166.226 353.772 166.226C353.442 168.206 353.112 170.186 352.772 172.226C351.782 171.896 350.792 171.566 349.772 171.226C349.772 170.566 349.772 169.906 349.772 169.226C348.782 168.896 347.792 168.566 346.772 168.226C347.411 168.082 348.051 167.937 348.709 167.789C350.747 167.416 350.747 167.416 351.772 166.226Z" fill="#C3C3C3"/>
<path d="M347.772 140.226C348.762 140.556 349.752 140.886 350.772 141.226C350.112 142.876 349.452 144.526 348.772 146.226C347.452 146.226 346.132 146.226 344.772 146.226C345.345 143.359 345.633 142.365 347.772 140.226Z" fill="#C6C6C6"/>
<path d="M371.772 168.226C372.432 168.226 373.092 168.226 373.772 168.226C373.772 169.216 373.772 170.206 373.772 171.226C374.432 171.226 375.092 171.226 375.772 171.226C375.772 171.886 375.772 172.546 375.772 173.226C373.792 173.226 371.812 173.226 369.772 173.226C370.432 171.576 371.092 169.926 371.772 168.226Z" fill="#CECECE"/>
<path d="M199.772 144.226C200.432 144.886 201.092 145.546 201.772 146.226C199.792 148.536 197.812 150.846 195.772 153.226C195.442 152.236 195.112 151.246 194.772 150.226C196.084 148.039 196.084 148.039 197.772 146.226C198.432 146.226 199.092 146.226 199.772 146.226C199.772 145.566 199.772 144.906 199.772 144.226Z" fill="#CDCDCD"/>
</svg>
