<svg width="1554" height="112" viewBox="0 0 1554 112" fill="none" xmlns="http://www.w3.org/2000/svg">
<g filter="url(#filter0_i_247_4)">
<rect x="1146" y="13" width="406.973" height="96" rx="3" fill="#D9D9D9"/>
</g>
<g filter="url(#filter1_i_247_4)">
<rect x="1148.06" y="84.2578" width="405.945" height="11.8763" rx="3" fill="#67A051"/>
</g>
<g filter="url(#filter2_i_247_4)">
<rect y="12" width="1157" height="97" rx="3" fill="#D9D9D9"/>
</g>
<g filter="url(#filter3_i_247_4)">
<rect y="27" width="1553" height="17" rx="3" fill="#527246"/>
</g>
<g filter="url(#filter4_i_247_4)">
<rect y="85" width="1156" height="12" rx="3" fill="#67A051"/>
</g>
<g filter="url(#filter5_i_247_4)">
<rect y="53" width="1553" height="21" rx="3" fill="#5A6556"/>
</g>
<g filter="url(#filter6_i_247_4)">
<rect x="412" y="12" width="730" height="97" fill="#D9D9D9"/>
</g>
<rect x="414.5" y="14.5" width="725" height="92" stroke="#21532B" stroke-width="5"/>
<g filter="url(#filter7_g_247_4)">
<path d="M486.44 37H525.71V44.91H486.44V37ZM487.21 54.22H524.8V62.13H487.21V54.22ZM501.56 26.57H509.96V92.3H501.56V26.57ZM499.32 59.26L506.32 61.64C504.873 65 503.123 68.29 501.07 71.51C499.017 74.6833 496.777 77.6 494.35 80.26C491.923 82.92 489.403 85.1833 486.79 87.05C486.37 86.3967 485.81 85.6733 485.11 84.88C484.41 84.04 483.687 83.2233 482.94 82.43C482.193 81.6367 481.493 80.9833 480.84 80.47C483.36 78.9767 485.787 77.11 488.12 74.87C490.453 72.5833 492.6 70.11 494.56 67.45C496.52 64.7433 498.107 62.0133 499.32 59.26ZM511.92 58.98C513.04 61.5933 514.463 64.23 516.19 66.89C517.917 69.5033 519.807 71.9533 521.86 74.24C523.913 76.5267 525.943 78.4633 527.95 80.05C527.343 80.5167 526.667 81.1233 525.92 81.87C525.173 82.6167 524.45 83.41 523.75 84.25C523.05 85.0433 522.467 85.79 522 86.49C519.9 84.5767 517.823 82.2433 515.77 79.49C513.763 76.7367 511.873 73.7967 510.1 70.67C508.373 67.4967 506.88 64.3233 505.62 61.15L511.92 58.98ZM460.4 62.27C462.547 61.8033 464.973 61.2667 467.68 60.66C470.387 60.0067 473.233 59.3067 476.22 58.56C479.207 57.7667 482.17 56.9967 485.11 56.25L486.16 63.95C482.1 65.07 477.97 66.19 473.77 67.31C469.617 68.43 465.837 69.4333 462.43 70.32L460.4 62.27ZM461.59 39.73H484.97V47.5H461.59V39.73ZM469.78 26.5H478.04V83.27C478.04 85.2767 477.83 86.84 477.41 87.96C476.99 89.08 476.197 89.9667 475.03 90.62C473.863 91.2267 472.463 91.6233 470.83 91.81C469.197 92.0433 467.19 92.16 464.81 92.16C464.717 91.0867 464.437 89.8033 463.97 88.31C463.55 86.8167 463.083 85.5333 462.57 84.46C463.783 84.5067 464.973 84.5533 466.14 84.6C467.353 84.6 468.17 84.5767 468.59 84.53C469.057 84.53 469.36 84.46 469.5 84.32C469.687 84.1333 469.78 83.7833 469.78 83.27V26.5ZM541.88 63.95H586.26V71.65H541.88V63.95ZM559.38 57.02H567.92V92.3H559.38V57.02ZM545.73 73.54L554.55 76.06C552.87 79.0467 550.723 81.8933 548.11 84.6C545.497 87.26 542.907 89.4767 540.34 91.25C539.78 90.69 539.033 90.06 538.1 89.36C537.213 88.66 536.303 87.96 535.37 87.26C534.437 86.6067 533.643 86.0933 532.99 85.72C535.557 84.2733 537.983 82.4767 540.27 80.33C542.603 78.1833 544.423 75.92 545.73 73.54ZM573.1 77.74L579.89 73.33C581.477 74.4967 583.18 75.8267 585 77.32C586.82 78.8133 588.547 80.3067 590.18 81.8C591.813 83.2467 593.143 84.6 594.17 85.86L586.82 90.76C585.933 89.5467 584.72 88.17 583.18 86.63C581.64 85.09 579.983 83.55 578.21 82.01C576.437 80.4233 574.733 79 573.1 77.74ZM563.86 49.6C561.993 51.8867 559.52 54.1733 556.44 56.46C553.36 58.7 549.953 60.7767 546.22 62.69C542.487 64.5567 538.707 66.12 534.88 67.38C534.46 66.3067 533.83 65.07 532.99 63.67C532.15 62.27 531.357 61.1267 530.61 60.24C534.577 59.0733 538.38 57.5567 542.02 55.69C545.707 53.8233 549.02 51.7467 551.96 49.46C554.947 47.1733 557.35 44.8167 559.17 42.39H567.85C570.417 45.33 573.31 47.92 576.53 50.16C579.797 52.4 583.25 54.29 586.89 55.83C590.53 57.3233 594.217 58.5133 597.95 59.4C597.017 60.4267 596.13 61.6633 595.29 63.11C594.45 64.5567 593.75 65.8633 593.19 67.03C590.577 66.2367 587.87 65.2333 585.07 64.02C582.317 62.76 579.61 61.3833 576.95 59.89C574.29 58.35 571.817 56.7167 569.53 54.99C567.29 53.2167 565.4 51.42 563.86 49.6ZM532.92 31.75H595.22V39.45H532.92V31.75ZM546.71 26.5H555.04V45.68H546.71V26.5ZM572.33 26.5H580.66V45.68H572.33V26.5Z" fill="#44624A"/>
</g>
<g filter="url(#filter8_g_247_4)">
<path d="M651.64 85.84C650.193 85.84 649.003 85.3967 648.07 84.51C647.137 83.5767 646.437 81.99 645.97 79.75C645.503 77.51 645.27 74.3833 645.27 70.37C645.27 68.3633 645.317 66.4733 645.41 64.7C645.55 62.88 645.667 61.1767 645.76 59.59C645.853 57.9567 645.9 56.37 645.9 54.83C645.9 53.6167 645.83 52.4967 645.69 51.47C645.597 50.4433 645.457 49.51 645.27 48.67C645.13 47.83 644.99 47.06 644.85 46.36C644.757 45.6133 644.71 44.9367 644.71 44.33C644.71 43.0233 645.013 41.9733 645.62 41.18C646.227 40.3867 647.277 39.99 648.77 39.99C650.17 39.99 651.36 40.41 652.34 41.25C653.367 42.09 654.16 43.1633 654.72 44.47C655.28 45.7767 655.583 47.1767 655.63 48.67L653.95 49.51C654.93 46.71 656.027 44.26 657.24 42.16C658.5 40.0133 659.853 38.3567 661.3 37.19C662.747 35.9767 664.263 35.37 665.85 35.37C667.017 35.37 668.043 35.6733 668.93 36.28C669.817 36.8867 670.61 37.8667 671.31 39.22C672.057 40.5733 672.733 42.3233 673.34 44.47C673.947 46.57 674.553 49.16 675.16 52.24C675.767 55.2733 676.257 57.9333 676.63 60.22C677.003 62.5067 677.4 64.5833 677.82 66.45C678.24 68.27 678.87 70.1133 679.71 71.98L675.65 70.09C676.35 68.3167 677.003 66.38 677.61 64.28C678.263 62.18 678.917 60.0333 679.57 57.84C680.223 55.6 680.9 53.4067 681.6 51.26C682.347 49.1133 683.14 47.1533 683.98 45.38C684.913 43.4667 685.893 41.74 686.92 40.2C687.993 38.6133 689.183 37.3767 690.49 36.49C691.797 35.5567 693.337 35.09 695.11 35.09C696.463 35.09 697.7 35.3933 698.82 36C699.987 36.56 700.99 37.4933 701.83 38.8C702.717 40.1067 703.44 41.81 704 43.91C704.607 46.01 705.073 48.6 705.4 51.68C705.773 55.0867 706.17 58.4233 706.59 61.69C707.01 64.91 707.547 67.9667 708.2 70.86C708.853 73.7067 709.623 76.25 710.51 78.49C711.023 79.8433 711.21 81.0567 711.07 82.13C710.977 83.2033 710.51 84.0667 709.67 84.72C708.877 85.3267 707.803 85.63 706.45 85.63C704.817 85.63 703.417 85.21 702.25 84.37C701.083 83.4833 700.033 82.13 699.1 80.31C698.353 78.91 697.723 77.2067 697.21 75.2C696.743 73.1933 696.347 71.07 696.02 68.83C695.693 66.59 695.413 64.3967 695.18 62.25C694.947 60.0567 694.737 58.05 694.55 56.23C694.457 54.69 694.293 53.29 694.06 52.03C693.873 50.77 693.593 49.58 693.22 48.46C692.893 47.2933 692.427 46.15 691.82 45.03L695.32 46.64C694.013 48.2267 692.87 50.21 691.89 52.59C690.957 54.9233 690.047 57.6067 689.16 60.64C688.273 63.6267 687.293 66.8933 686.22 70.44C685.193 73.94 683.91 77.6967 682.37 81.71C681.81 83.1567 681.133 84.1833 680.34 84.79C679.593 85.3967 678.59 85.7 677.33 85.7C676.117 85.7 675.113 85.4667 674.32 85C673.527 84.4867 672.803 83.67 672.15 82.55C670.75 80.2633 669.607 77.51 668.72 74.29C667.833 71.07 667.063 67.2433 666.41 62.81C665.99 59.8233 665.57 57.2333 665.15 55.04C664.73 52.8467 664.077 50.7467 663.19 48.74L664.31 48.88C661.463 53.22 659.503 58.05 658.43 63.37C657.357 68.6433 656.657 74.5 656.33 80.94C656.237 82.7133 655.77 83.9733 654.93 84.72C654.09 85.4667 652.993 85.84 651.64 85.84ZM722.076 85.7C719.649 85.7 717.526 85.2567 715.706 84.37C713.886 83.4367 712.463 82.1533 711.436 80.52C710.409 78.84 709.896 76.9033 709.896 74.71C709.896 72.33 710.293 69.9033 711.086 67.43C711.879 64.9567 712.976 62.6 714.376 60.36C715.776 58.12 717.386 56.1133 719.206 54.34C721.073 52.5667 723.056 51.1667 725.156 50.14C727.256 49.1133 729.379 48.6 731.526 48.6C733.253 48.6 734.723 49.16 735.936 50.28C737.149 51.4 737.756 52.9867 737.756 55.04C737.756 55.7867 737.546 56.37 737.126 56.79C736.706 57.21 736.169 57.49 735.516 57.63C732.529 58.0967 729.893 59.2633 727.606 61.13C725.319 62.95 723.523 65.1433 722.216 67.71C720.909 70.23 720.256 72.8667 720.256 75.62C720.256 76.4133 720.303 77.16 720.396 77.86C720.536 78.5133 720.793 79.3533 721.166 80.38L716.406 73.24C717.526 74.08 718.506 74.6633 719.346 74.99C720.233 75.27 721.259 75.41 722.426 75.41C724.806 75.41 727.023 73.94 729.076 71C731.129 68.0133 732.599 63.65 733.486 57.91C733.626 56.79 734.116 55.9267 734.956 55.32C735.796 54.6667 736.753 54.34 737.826 54.34C739.646 54.34 741.186 54.83 742.446 55.81C743.706 56.79 744.593 58.0033 745.106 59.45C745.899 61.5967 746.623 63.6033 747.276 65.47C747.976 67.29 748.793 69.0633 749.726 70.79C750.706 72.47 752.013 74.22 753.646 76.04C754.253 76.74 754.556 77.6267 754.556 78.7C754.603 79.7267 754.416 80.7767 753.996 81.85C753.576 82.8767 752.946 83.74 752.106 84.44C751.313 85.14 750.333 85.49 749.166 85.49C748.326 85.49 747.649 85.3267 747.136 85C746.623 84.72 746.179 84.3467 745.806 83.88C744.779 82.6667 743.869 81.4767 743.076 80.31C742.283 79.0967 741.536 77.8367 740.836 76.53C740.183 75.1767 739.553 73.6833 738.946 72.05C738.386 70.37 737.803 68.4333 737.196 66.24L740.906 65.96C740.019 69.6933 738.876 72.82 737.476 75.34C736.076 77.86 734.536 79.89 732.856 81.43C731.223 82.97 729.473 84.0667 727.606 84.72C725.786 85.3733 723.943 85.7 722.076 85.7ZM770.015 85.91C765.909 85.91 762.595 85.0233 760.075 83.25C757.555 81.4767 755.735 79.0033 754.615 75.83C753.542 72.61 753.005 68.9 753.005 64.7C753.005 62.3667 753.122 60.29 753.355 58.47C753.589 56.6033 753.822 54.83 754.055 53.15C754.289 51.47 754.429 49.65 754.475 47.69C754.522 45.73 754.452 44.1433 754.265 42.93C754.125 41.7167 754.079 40.55 754.125 39.43C754.125 38.2633 754.499 37.2367 755.245 36.35C755.992 35.4633 757.182 35.02 758.815 35.02C760.962 35.02 762.595 35.86 763.715 37.54C764.835 39.1733 765.349 41.9733 765.255 45.94C765.209 47.2933 765.092 48.6467 764.905 50C764.765 51.3533 764.579 52.7533 764.345 54.2C764.159 55.6 763.995 57.14 763.855 58.82C763.715 60.4533 763.645 62.2733 763.645 64.28C763.645 67.0333 763.925 69.2267 764.485 70.86C765.092 72.4933 765.955 73.66 767.075 74.36C768.242 75.06 769.689 75.41 771.415 75.41C772.489 75.41 773.352 75.3167 774.005 75.13C774.705 74.8967 775.312 74.6867 775.825 74.5C776.385 74.2667 776.992 74.15 777.645 74.15C778.765 74.15 779.605 74.4767 780.165 75.13C780.725 75.7833 781.005 76.81 781.005 78.21C781.005 80.3567 780.142 82.1767 778.415 83.67C776.689 85.1633 773.889 85.91 770.015 85.91ZM762.455 61.27C760.495 62.0633 758.979 62.04 757.905 61.2C756.879 60.3133 756.365 59.0533 756.365 57.42C756.365 56.0667 756.622 54.8533 757.135 53.78C757.649 52.66 758.932 51.7267 760.985 50.98C762.899 50.28 765.022 49.72 767.355 49.3C769.689 48.88 771.905 48.67 774.005 48.67C776.712 48.67 778.602 49.1833 779.675 50.21C780.749 51.2367 781.285 52.5433 781.285 54.13C781.285 55.2967 780.912 56.2067 780.165 56.86C779.465 57.5133 778.509 57.8867 777.295 57.98C775.195 58.12 773.329 58.33 771.695 58.61C770.109 58.8433 768.592 59.17 767.145 59.59C765.699 60.01 764.135 60.57 762.455 61.27ZM796.933 85.63C793.153 85.63 789.933 84.9533 787.273 83.6C784.66 82.2 782.677 80.31 781.323 77.93C779.97 75.5033 779.293 72.7267 779.293 69.6C779.293 66.66 779.9 63.93 781.113 61.41C782.373 58.89 784.077 56.6733 786.223 54.76C788.417 52.8467 790.89 51.3533 793.643 50.28C796.443 49.2067 799.43 48.67 802.603 48.67C804.05 48.67 805.31 48.9267 806.383 49.44C807.457 49.9067 808.297 50.6067 808.903 51.54C809.51 52.4733 809.813 53.64 809.813 55.04C809.813 56.72 809.463 58.1433 808.763 59.31C808.063 60.4767 807.083 61.06 805.823 61.06C805.17 61.06 804.703 60.8967 804.423 60.57C804.143 60.2433 803.84 59.94 803.513 59.66C803.233 59.38 802.673 59.24 801.833 59.24C799.593 59.24 797.587 59.7533 795.813 60.78C794.04 61.76 792.64 63.0667 791.613 64.7C790.587 66.3333 790.073 68.0833 790.073 69.95C790.073 70.93 790.283 71.8167 790.703 72.61C791.123 73.4033 791.823 74.0333 792.803 74.5C793.783 74.92 795.183 75.13 797.003 75.13C798.823 75.13 800.247 74.8967 801.273 74.43C802.3 73.9633 803.117 73.45 803.723 72.89C804.33 72.2833 804.913 71.7467 805.473 71.28C806.033 70.8133 806.757 70.58 807.643 70.58C808.763 70.58 809.58 70.93 810.093 71.63C810.653 72.33 810.933 73.4033 810.933 74.85C810.933 76.9033 810.327 78.7467 809.113 80.38C807.947 82.0133 806.29 83.2967 804.143 84.23C802.043 85.1633 799.64 85.63 796.933 85.63ZM818.737 85.49C817.337 85.49 816.124 85.1167 815.097 84.37C814.117 83.5767 813.347 82.48 812.787 81.08C812.274 79.6333 812.017 77.9767 812.017 76.11C812.017 71.7233 812.18 67.78 812.507 64.28C812.88 60.7333 813.23 57.5367 813.557 54.69C813.93 51.8433 814.14 49.23 814.187 46.85C814.234 45.03 814.187 43.5133 814.047 42.3C813.954 41.04 813.837 39.9433 813.697 39.01C813.557 38.03 813.487 37.0267 813.487 36C813.487 34.9267 813.837 33.97 814.537 33.13C815.237 32.2433 816.404 31.8 818.037 31.8C819.484 31.8 820.744 32.22 821.817 33.06C822.89 33.9 823.684 35.3233 824.197 37.33C824.757 39.3367 825.014 42.0667 824.967 45.52C824.874 47.4333 824.687 49.58 824.407 51.96C824.127 54.34 823.847 57.1167 823.567 60.29C823.334 63.4167 823.217 67.1733 823.217 71.56L820.837 67.22C822.657 62.8333 824.454 59.24 826.227 56.44C828.047 53.64 829.867 51.5867 831.687 50.28C833.554 48.9733 835.444 48.32 837.357 48.32C839.924 48.32 841.93 49.0433 843.377 50.49C844.87 51.89 845.967 53.92 846.667 56.58C847.414 59.24 847.997 62.4833 848.417 66.31C848.697 68.7833 849.024 70.7433 849.397 72.19C849.77 73.6367 850.167 74.78 850.587 75.62C851.007 76.46 851.427 77.23 851.847 77.93C852.08 78.3967 852.267 78.91 852.407 79.47C852.594 80.03 852.687 80.5667 852.687 81.08C852.687 82.48 852.244 83.6233 851.357 84.51C850.47 85.3967 849.21 85.84 847.577 85.84C845.757 85.84 844.264 85.3267 843.097 84.3C841.93 83.2733 840.997 81.8733 840.297 80.1C839.644 78.3267 839.177 76.32 838.897 74.08C838.57 71.3733 838.267 69.18 837.987 67.5C837.707 65.82 837.404 64.4433 837.077 63.37C836.797 62.2967 836.447 61.3167 836.027 60.43C835.28 60.8033 834.23 61.9 832.877 63.72C831.524 65.4933 830.03 67.9433 828.397 71.07C826.764 74.1967 825.06 77.9533 823.287 82.34C822.727 83.6 822.097 84.44 821.397 84.86C820.744 85.28 819.857 85.49 818.737 85.49ZM863.397 85.7C860.97 85.7 858.847 85.2567 857.027 84.37C855.207 83.4367 853.783 82.1533 852.757 80.52C851.73 78.84 851.217 76.9033 851.217 74.71C851.217 72.33 851.613 69.9033 852.407 67.43C853.2 64.9567 854.297 62.6 855.697 60.36C857.097 58.12 858.707 56.1133 860.527 54.34C862.393 52.5667 864.377 51.1667 866.477 50.14C868.577 49.1133 870.7 48.6 872.847 48.6C874.573 48.6 876.043 49.16 877.257 50.28C878.47 51.4 879.077 52.9867 879.077 55.04C879.077 55.7867 878.867 56.37 878.447 56.79C878.027 57.21 877.49 57.49 876.837 57.63C873.85 58.0967 871.213 59.2633 868.927 61.13C866.64 62.95 864.843 65.1433 863.537 67.71C862.23 70.23 861.577 72.8667 861.577 75.62C861.577 76.4133 861.623 77.16 861.717 77.86C861.857 78.5133 862.113 79.3533 862.487 80.38L857.727 73.24C858.847 74.08 859.827 74.6633 860.667 74.99C861.553 75.27 862.58 75.41 863.747 75.41C866.127 75.41 868.343 73.94 870.397 71C872.45 68.0133 873.92 63.65 874.807 57.91C874.947 56.79 875.437 55.9267 876.277 55.32C877.117 54.6667 878.073 54.34 879.147 54.34C880.967 54.34 882.507 54.83 883.767 55.81C885.027 56.79 885.913 58.0033 886.427 59.45C887.22 61.5967 887.943 63.6033 888.597 65.47C889.297 67.29 890.113 69.0633 891.047 70.79C892.027 72.47 893.333 74.22 894.967 76.04C895.573 76.74 895.877 77.6267 895.877 78.7C895.923 79.7267 895.737 80.7767 895.317 81.85C894.897 82.8767 894.267 83.74 893.427 84.44C892.633 85.14 891.653 85.49 890.487 85.49C889.647 85.49 888.97 85.3267 888.457 85C887.943 84.72 887.5 84.3467 887.127 83.88C886.1 82.6667 885.19 81.4767 884.397 80.31C883.603 79.0967 882.857 77.8367 882.157 76.53C881.503 75.1767 880.873 73.6833 880.267 72.05C879.707 70.37 879.123 68.4333 878.517 66.24L882.227 65.96C881.013 70.9067 879.38 74.8267 877.327 77.72C875.32 80.6133 873.103 82.6667 870.677 83.88C868.297 85.0933 865.87 85.7 863.397 85.7ZM920.262 85.84C918.816 85.84 917.626 85.3967 916.692 84.51C915.759 83.5767 915.059 81.99 914.592 79.75C914.126 77.51 913.892 74.3833 913.892 70.37C913.892 68.3633 913.939 66.4733 914.032 64.7C914.172 62.88 914.289 61.1767 914.382 59.59C914.476 57.9567 914.522 56.37 914.522 54.83C914.522 53.6167 914.452 52.4967 914.312 51.47C914.219 50.4433 914.079 49.51 913.892 48.67C913.752 47.83 913.612 47.06 913.472 46.36C913.379 45.6133 913.332 44.9367 913.332 44.33C913.332 43.0233 913.636 41.9733 914.242 41.18C914.849 40.3867 915.899 39.99 917.392 39.99C918.792 39.99 919.982 40.41 920.962 41.25C921.989 42.09 922.782 43.1633 923.342 44.47C923.902 45.7767 924.206 47.1767 924.252 48.67L922.572 49.51C923.552 46.71 924.649 44.26 925.862 42.16C927.122 40.0133 928.476 38.3567 929.922 37.19C931.369 35.9767 932.886 35.37 934.472 35.37C935.639 35.37 936.666 35.6733 937.552 36.28C938.439 36.8867 939.232 37.8667 939.932 39.22C940.679 40.5733 941.356 42.3233 941.962 44.47C942.569 46.57 943.176 49.16 943.782 52.24C944.389 55.2733 944.879 57.9333 945.252 60.22C945.626 62.5067 946.022 64.5833 946.442 66.45C946.862 68.27 947.492 70.1133 948.332 71.98L944.272 70.09C944.972 68.3167 945.626 66.38 946.232 64.28C946.886 62.18 947.539 60.0333 948.192 57.84C948.846 55.6 949.522 53.4067 950.222 51.26C950.969 49.1133 951.762 47.1533 952.602 45.38C953.536 43.4667 954.516 41.74 955.542 40.2C956.616 38.6133 957.806 37.3767 959.112 36.49C960.419 35.5567 961.959 35.09 963.732 35.09C965.086 35.09 966.322 35.3933 967.442 36C968.609 36.56 969.612 37.4933 970.452 38.8C971.339 40.1067 972.062 41.81 972.622 43.91C973.229 46.01 973.696 48.6 974.022 51.68C974.396 55.0867 974.792 58.4233 975.212 61.69C975.632 64.91 976.169 67.9667 976.822 70.86C977.476 73.7067 978.246 76.25 979.132 78.49C979.646 79.8433 979.832 81.0567 979.692 82.13C979.599 83.2033 979.132 84.0667 978.292 84.72C977.499 85.3267 976.426 85.63 975.072 85.63C973.439 85.63 972.039 85.21 970.872 84.37C969.706 83.4833 968.656 82.13 967.722 80.31C966.976 78.91 966.346 77.2067 965.832 75.2C965.366 73.1933 964.969 71.07 964.642 68.83C964.316 66.59 964.036 64.3967 963.802 62.25C963.569 60.0567 963.359 58.05 963.172 56.23C963.079 54.69 962.916 53.29 962.682 52.03C962.496 50.77 962.216 49.58 961.842 48.46C961.516 47.2933 961.049 46.15 960.442 45.03L963.942 46.64C962.636 48.2267 961.492 50.21 960.512 52.59C959.579 54.9233 958.669 57.6067 957.782 60.64C956.896 63.6267 955.916 66.8933 954.842 70.44C953.816 73.94 952.532 77.6967 950.992 81.71C950.432 83.1567 949.756 84.1833 948.962 84.79C948.216 85.3967 947.212 85.7 945.952 85.7C944.739 85.7 943.736 85.4667 942.942 85C942.149 84.4867 941.426 83.67 940.772 82.55C939.372 80.2633 938.229 77.51 937.342 74.29C936.456 71.07 935.686 67.2433 935.032 62.81C934.612 59.8233 934.192 57.2333 933.772 55.04C933.352 52.8467 932.699 50.7467 931.812 48.74L932.932 48.88C930.086 53.22 928.126 58.05 927.052 63.37C925.979 68.6433 925.279 74.5 924.952 80.94C924.859 82.7133 924.392 83.9733 923.552 84.72C922.712 85.4667 921.616 85.84 920.262 85.84ZM990.698 85.7C988.271 85.7 986.148 85.2567 984.328 84.37C982.508 83.4367 981.085 82.1533 980.058 80.52C979.031 78.84 978.518 76.9033 978.518 74.71C978.518 72.33 978.915 69.9033 979.708 67.43C980.501 64.9567 981.598 62.6 982.998 60.36C984.398 58.12 986.008 56.1133 987.828 54.34C989.695 52.5667 991.678 51.1667 993.778 50.14C995.878 49.1133 998.001 48.6 1000.15 48.6C1001.87 48.6 1003.34 49.16 1004.56 50.28C1005.77 51.4 1006.38 52.9867 1006.38 55.04C1006.38 55.7867 1006.17 56.37 1005.75 56.79C1005.33 57.21 1004.79 57.49 1004.14 57.63C1001.15 58.0967 998.515 59.2633 996.228 61.13C993.941 62.95 992.145 65.1433 990.838 67.71C989.531 70.23 988.878 72.8667 988.878 75.62C988.878 76.4133 988.925 77.16 989.018 77.86C989.158 78.5133 989.415 79.3533 989.788 80.38L985.028 73.24C986.148 74.08 987.128 74.6633 987.968 74.99C988.855 75.27 989.881 75.41 991.048 75.41C993.428 75.41 995.645 73.94 997.698 71C999.751 68.0133 1001.22 63.65 1002.11 57.91C1002.25 56.79 1002.74 55.9267 1003.58 55.32C1004.42 54.6667 1005.37 54.34 1006.45 54.34C1008.27 54.34 1009.81 54.83 1011.07 55.81C1012.33 56.79 1013.21 58.0033 1013.73 59.45C1014.52 61.5967 1015.24 63.6033 1015.9 65.47C1016.6 67.29 1017.41 69.0633 1018.35 70.79C1019.33 72.47 1020.63 74.22 1022.27 76.04C1022.87 76.74 1023.18 77.6267 1023.18 78.7C1023.22 79.7267 1023.04 80.7767 1022.62 81.85C1022.2 82.8767 1021.57 83.74 1020.73 84.44C1019.93 85.14 1018.95 85.49 1017.79 85.49C1016.95 85.49 1016.27 85.3267 1015.76 85C1015.24 84.72 1014.8 84.3467 1014.43 83.88C1013.4 82.6667 1012.49 81.4767 1011.7 80.31C1010.9 79.0967 1010.16 77.8367 1009.46 76.53C1008.8 75.1767 1008.17 73.6833 1007.57 72.05C1007.01 70.37 1006.42 68.4333 1005.82 66.24L1009.53 65.96C1008.64 69.6933 1007.5 72.82 1006.1 75.34C1004.7 77.86 1003.16 79.89 1001.48 81.43C999.845 82.97 998.095 84.0667 996.228 84.72C994.408 85.3733 992.565 85.7 990.698 85.7ZM1029.33 85.84C1028.21 85.84 1027.23 85.5133 1026.39 84.86C1025.55 84.16 1024.88 83.2267 1024.36 82.06C1023.9 80.8467 1023.66 79.47 1023.66 77.93C1023.66 74.71 1023.57 71.8167 1023.38 69.25C1023.24 66.6833 1023.01 64.3967 1022.68 62.39C1022.36 60.3367 1021.91 58.54 1021.35 57C1020.89 55.7867 1020.58 54.9 1020.44 54.34C1020.35 53.7333 1020.3 53.1033 1020.3 52.45C1020.3 51.5167 1020.63 50.77 1021.28 50.21C1021.94 49.6033 1022.99 49.3 1024.43 49.3C1025.74 49.3 1026.91 49.58 1027.93 50.14C1028.96 50.7 1029.85 51.6333 1030.59 52.94C1031.34 54.2467 1031.95 56.0433 1032.41 58.33C1032.93 60.6167 1033.25 63.51 1033.39 67.01L1029.26 67.64C1030.15 64.6067 1031.27 61.9233 1032.62 59.59C1034.02 57.2567 1035.59 55.2967 1037.31 53.71C1039.09 52.1233 1040.91 50.9333 1042.77 50.14C1044.64 49.3 1046.46 48.88 1048.23 48.88C1050.15 48.88 1051.52 49.3933 1052.36 50.42C1053.25 51.4 1053.69 52.73 1053.69 54.41C1053.69 55.5767 1053.3 56.6033 1052.5 57.49C1051.76 58.33 1050.5 59.17 1048.72 60.01C1046.25 61.13 1044.15 62.39 1042.42 63.79C1040.74 65.1433 1039.37 66.66 1038.29 68.34C1037.27 69.9733 1036.47 71.7233 1035.91 73.59C1035.4 75.4567 1035.03 77.44 1034.79 79.54C1034.56 81.22 1034.21 82.5267 1033.74 83.46C1033.28 84.3467 1032.67 84.9533 1031.92 85.28C1031.22 85.6533 1030.36 85.84 1029.33 85.84ZM1069.82 85.91C1065.71 85.91 1062.4 85.0233 1059.88 83.25C1057.36 81.4767 1055.54 79.0033 1054.42 75.83C1053.34 72.61 1052.81 68.9 1052.81 64.7C1052.81 62.3667 1052.92 60.29 1053.16 58.47C1053.39 56.6033 1053.62 54.83 1053.86 53.15C1054.09 51.47 1054.23 49.65 1054.28 47.69C1054.32 45.73 1054.25 44.1433 1054.07 42.93C1053.93 41.7167 1053.88 40.55 1053.93 39.43C1053.93 38.2633 1054.3 37.2367 1055.05 36.35C1055.79 35.4633 1056.98 35.02 1058.62 35.02C1060.76 35.02 1062.4 35.86 1063.52 37.54C1064.64 39.1733 1065.15 41.9733 1065.06 45.94C1065.01 47.2933 1064.89 48.6467 1064.71 50C1064.57 51.3533 1064.38 52.7533 1064.15 54.2C1063.96 55.6 1063.8 57.14 1063.66 58.82C1063.52 60.4533 1063.45 62.2733 1063.45 64.28C1063.45 67.0333 1063.73 69.2267 1064.29 70.86C1064.89 72.4933 1065.76 73.66 1066.88 74.36C1068.04 75.06 1069.49 75.41 1071.22 75.41C1072.29 75.41 1073.15 75.3167 1073.81 75.13C1074.51 74.8967 1075.11 74.6867 1075.63 74.5C1076.19 74.2667 1076.79 74.15 1077.45 74.15C1078.57 74.15 1079.41 74.4767 1079.97 75.13C1080.53 75.7833 1080.81 76.81 1080.81 78.21C1080.81 80.3567 1079.94 82.1767 1078.22 83.67C1076.49 85.1633 1073.69 85.91 1069.82 85.91ZM1062.26 61.27C1060.3 62.0633 1058.78 62.04 1057.71 61.2C1056.68 60.3133 1056.17 59.0533 1056.17 57.42C1056.17 56.0667 1056.42 54.8533 1056.94 53.78C1057.45 52.66 1058.73 51.7267 1060.79 50.98C1062.7 50.28 1064.82 49.72 1067.16 49.3C1069.49 48.88 1071.71 48.67 1073.81 48.67C1076.51 48.67 1078.4 49.1833 1079.48 50.21C1080.55 51.2367 1081.09 52.5433 1081.09 54.13C1081.09 55.2967 1080.71 56.2067 1079.97 56.86C1079.27 57.5133 1078.31 57.8867 1077.1 57.98C1075 58.12 1073.13 58.33 1071.5 58.61C1069.91 58.8433 1068.39 59.17 1066.95 59.59C1065.5 60.01 1063.94 60.57 1062.26 61.27Z" fill="#44624A"/>
</g>
<defs>
<filter id="filter0_i_247_4" x="1146" y="13" width="410.973" height="98" filterUnits="userSpaceOnUse" color-interpolation-filters="sRGB">
<feFlood flood-opacity="0" result="BackgroundImageFix"/>
<feBlend mode="normal" in="SourceGraphic" in2="BackgroundImageFix" result="shape"/>
<feColorMatrix in="SourceAlpha" type="matrix" values="0 0 0 0 0 0 0 0 0 0 0 0 0 0 0 0 0 0 127 0" result="hardAlpha"/>
<feMorphology radius="15" operator="erode" in="SourceAlpha" result="effect1_innerShadow_247_4"/>
<feOffset dx="4" dy="2"/>
<feGaussianBlur stdDeviation="20.3"/>
<feComposite in2="hardAlpha" operator="arithmetic" k2="-1" k3="1"/>
<feColorMatrix type="matrix" values="0 0 0 0 0 0 0 0 0 0 0 0 0 0 0 0 0 0 0.25 0"/>
<feBlend mode="normal" in2="shape" result="effect1_innerShadow_247_4"/>
</filter>
<filter id="filter1_i_247_4" x="1148.06" y="84.2578" width="405.945" height="15.8762" filterUnits="userSpaceOnUse" color-interpolation-filters="sRGB">
<feFlood flood-opacity="0" result="BackgroundImageFix"/>
<feBlend mode="normal" in="SourceGraphic" in2="BackgroundImageFix" result="shape"/>
<feColorMatrix in="SourceAlpha" type="matrix" values="0 0 0 0 0 0 0 0 0 0 0 0 0 0 0 0 0 0 127 0" result="hardAlpha"/>
<feOffset dy="4"/>
<feGaussianBlur stdDeviation="2"/>
<feComposite in2="hardAlpha" operator="arithmetic" k2="-1" k3="1"/>
<feColorMatrix type="matrix" values="0 0 0 0 0 0 0 0 0 0 0 0 0 0 0 0 0 0 0.25 0"/>
<feBlend mode="normal" in2="shape" result="effect1_innerShadow_247_4"/>
</filter>
<filter id="filter2_i_247_4" x="0" y="12" width="1161" height="99" filterUnits="userSpaceOnUse" color-interpolation-filters="sRGB">
<feFlood flood-opacity="0" result="BackgroundImageFix"/>
<feBlend mode="normal" in="SourceGraphic" in2="BackgroundImageFix" result="shape"/>
<feColorMatrix in="SourceAlpha" type="matrix" values="0 0 0 0 0 0 0 0 0 0 0 0 0 0 0 0 0 0 127 0" result="hardAlpha"/>
<feMorphology radius="15" operator="erode" in="SourceAlpha" result="effect1_innerShadow_247_4"/>
<feOffset dx="4" dy="2"/>
<feGaussianBlur stdDeviation="20.3"/>
<feComposite in2="hardAlpha" operator="arithmetic" k2="-1" k3="1"/>
<feColorMatrix type="matrix" values="0 0 0 0 0 0 0 0 0 0 0 0 0 0 0 0 0 0 0.25 0"/>
<feBlend mode="normal" in2="shape" result="effect1_innerShadow_247_4"/>
</filter>
<filter id="filter3_i_247_4" x="0" y="27" width="1553" height="21" filterUnits="userSpaceOnUse" color-interpolation-filters="sRGB">
<feFlood flood-opacity="0" result="BackgroundImageFix"/>
<feBlend mode="normal" in="SourceGraphic" in2="BackgroundImageFix" result="shape"/>
<feColorMatrix in="SourceAlpha" type="matrix" values="0 0 0 0 0 0 0 0 0 0 0 0 0 0 0 0 0 0 127 0" result="hardAlpha"/>
<feOffset dy="4"/>
<feGaussianBlur stdDeviation="2"/>
<feComposite in2="hardAlpha" operator="arithmetic" k2="-1" k3="1"/>
<feColorMatrix type="matrix" values="0 0 0 0 0 0 0 0 0 0 0 0 0 0 0 0 0 0 0.25 0"/>
<feBlend mode="normal" in2="shape" result="effect1_innerShadow_247_4"/>
</filter>
<filter id="filter4_i_247_4" x="0" y="85" width="1156" height="16" filterUnits="userSpaceOnUse" color-interpolation-filters="sRGB">
<feFlood flood-opacity="0" result="BackgroundImageFix"/>
<feBlend mode="normal" in="SourceGraphic" in2="BackgroundImageFix" result="shape"/>
<feColorMatrix in="SourceAlpha" type="matrix" values="0 0 0 0 0 0 0 0 0 0 0 0 0 0 0 0 0 0 127 0" result="hardAlpha"/>
<feOffset dy="4"/>
<feGaussianBlur stdDeviation="2"/>
<feComposite in2="hardAlpha" operator="arithmetic" k2="-1" k3="1"/>
<feColorMatrix type="matrix" values="0 0 0 0 0 0 0 0 0 0 0 0 0 0 0 0 0 0 0.25 0"/>
<feBlend mode="normal" in2="shape" result="effect1_innerShadow_247_4"/>
</filter>
<filter id="filter5_i_247_4" x="0" y="53" width="1553" height="25" filterUnits="userSpaceOnUse" color-interpolation-filters="sRGB">
<feFlood flood-opacity="0" result="BackgroundImageFix"/>
<feBlend mode="normal" in="SourceGraphic" in2="BackgroundImageFix" result="shape"/>
<feColorMatrix in="SourceAlpha" type="matrix" values="0 0 0 0 0 0 0 0 0 0 0 0 0 0 0 0 0 0 127 0" result="hardAlpha"/>
<feOffset dy="4"/>
<feGaussianBlur stdDeviation="2"/>
<feComposite in2="hardAlpha" operator="arithmetic" k2="-1" k3="1"/>
<feColorMatrix type="matrix" values="0 0 0 0 0 0 0 0 0 0 0 0 0 0 0 0 0 0 0.25 0"/>
<feBlend mode="normal" in2="shape" result="effect1_innerShadow_247_4"/>
</filter>
<filter id="filter6_i_247_4" x="412" y="12" width="730" height="101" filterUnits="userSpaceOnUse" color-interpolation-filters="sRGB">
<feFlood flood-opacity="0" result="BackgroundImageFix"/>
<feBlend mode="normal" in="SourceGraphic" in2="BackgroundImageFix" result="shape"/>
<feColorMatrix in="SourceAlpha" type="matrix" values="0 0 0 0 0 0 0 0 0 0 0 0 0 0 0 0 0 0 127 0" result="hardAlpha"/>
<feMorphology radius="2" operator="erode" in="SourceAlpha" result="effect1_innerShadow_247_4"/>
<feOffset dy="4"/>
<feGaussianBlur stdDeviation="9.3"/>
<feComposite in2="hardAlpha" operator="arithmetic" k2="-1" k3="1"/>
<feColorMatrix type="matrix" values="0 0 0 0 0 0 0 0 0 0 0 0 0 0 0 0 0 0 0.25 0"/>
<feBlend mode="normal" in2="shape" result="effect1_innerShadow_247_4"/>
</filter>
<filter id="filter7_g_247_4" x="456.4" y="22.5" width="145.55" height="73.8" filterUnits="userSpaceOnUse" color-interpolation-filters="sRGB">
<feFlood flood-opacity="0" result="BackgroundImageFix"/>
<feBlend mode="normal" in="SourceGraphic" in2="BackgroundImageFix" result="shape"/>
<feTurbulence type="fractalNoise" baseFrequency="2 2" numOctaves="3" seed="959" />
<feDisplacementMap in="shape" scale="8" xChannelSelector="R" yChannelSelector="G" result="displacedImage" width="100%" height="100%" />
<feMerge result="effect1_texture_247_4">
<feMergeNode in="displacedImage"/>
</feMerge>
</filter>
<filter id="filter8_g_247_4" x="640.71" y="27.8" width="444.375" height="62.1099" filterUnits="userSpaceOnUse" color-interpolation-filters="sRGB">
<feFlood flood-opacity="0" result="BackgroundImageFix"/>
<feBlend mode="normal" in="SourceGraphic" in2="BackgroundImageFix" result="shape"/>
<feTurbulence type="fractalNoise" baseFrequency="2 2" numOctaves="3" seed="959" />
<feDisplacementMap in="shape" scale="8" xChannelSelector="R" yChannelSelector="G" result="displacedImage" width="100%" height="100%" />
<feMerge result="effect1_texture_247_4">
<feMergeNode in="displacedImage"/>
</feMerge>
</filter>
</defs>
</svg>
