<svg width="33" height="32" viewBox="0 0 33 32" fill="none" xmlns="http://www.w3.org/2000/svg">
<path d="M24.3389 0.48007C24.6526 0.612491 24.6526 0.612491 25.077 0.588362C25.3696 0.46672 25.661 0.342846 25.9511 0.217076C27.0255 -0.0674131 28.1499 0.0485492 29.2029 0.335037C29.4476 0.4646 29.4476 0.4646 29.5688 0.702455C29.5933 0.959648 29.5933 0.959648 29.3838 1.33093C28.8337 1.87805 28.1994 2.09692 27.408 2.32103C27.4801 2.39505 27.5522 2.46908 27.6265 2.54535C27.9464 3.12275 27.9857 3.67553 27.845 4.30122C27.6257 4.68497 27.3778 5.05089 27.1166 5.41508C27.1796 5.47168 27.2426 5.52829 27.3075 5.58661C27.9247 6.14167 28.5402 6.69806 29.1549 7.25513C29.3969 7.47331 29.6406 7.68979 29.8858 7.9053C30.7797 8.7064 31.4257 9.53607 32.0699 10.4893C32.1364 10.5793 32.2029 10.6693 32.2714 10.762C32.5819 11.1863 32.7046 11.4745 32.6526 11.9745C32.7007 12.0153 32.7488 12.0561 32.7983 12.0982C32.9394 12.9355 32.9664 13.7584 32.9675 14.6031C32.9682 14.7377 32.9689 14.8722 32.9697 15.0109C32.9718 15.4525 32.9728 15.894 32.9736 16.3356C32.9744 16.6436 32.9753 16.9516 32.9761 17.2596C32.9776 17.9034 32.9785 18.5473 32.979 19.1911C32.9796 19.8524 32.9816 20.5137 32.985 21.1751C32.989 21.9748 32.9909 22.7745 32.9911 23.5742C32.9916 23.8788 32.9928 24.1835 32.9947 24.4881C32.9971 24.9129 32.9969 25.3376 32.9959 25.7625C32.9973 25.8886 32.9986 26.0146 33 26.1445C32.9988 26.3181 32.9988 26.3181 32.9975 26.4952C32.9978 26.5955 32.998 26.6958 32.9982 26.7991C32.93 27.1443 32.7833 27.3123 32.507 27.5685C31.9007 27.8267 31.2529 27.9976 30.6131 28.1873C30.3843 28.2619 30.3843 28.2619 30.151 28.3381C26.3049 29.5346 22.1246 29.7908 18.0842 30.1675C17.2523 30.2453 16.4206 30.3246 15.5893 30.4073C15.4925 30.4169 15.3956 30.4265 15.2958 30.4364C13.7255 30.5946 12.1797 30.8239 10.6288 31.082C9.17302 31.3239 7.71744 31.5301 6.2473 31.699C6.07149 31.7198 5.89568 31.7405 5.71454 31.7619C2.43875 32.1238 2.43875 32.1238 1.33045 31.4051C0.368639 30.6354 0.0533265 29.8385 0.00530657 28.7313C-0.000712667 28.3204 -0.000793887 27.9098 0.00107404 27.4989C0.001567 27.3381 0.00205997 27.1773 0.00256787 27.0117C0.0102904 25.4165 0.0360995 23.8214 0.0658158 22.2264C0.0711538 21.934 0.0761128 21.6415 0.0806653 21.349C0.102821 19.9679 0.130903 18.5917 0.298134 17.2169C0.309218 17.1256 0.320303 17.0342 0.331723 16.94C0.413561 16.3409 0.570133 15.776 0.747708 15.1923C0.775595 14.9738 0.775595 14.9738 0.804047 14.7509C0.908503 14.2541 1.13707 13.8878 1.44881 13.4673C1.50671 13.3875 1.56461 13.3076 1.62427 13.2253C2.26075 12.3649 2.98412 11.5622 3.71212 10.757C5.3821 8.89964 6.93225 6.99662 8.37844 5.00947C8.90283 4.29415 9.46759 3.60859 10.0715 2.93984C10.2166 2.77328 10.2166 2.77328 10.3646 2.60336C10.7805 2.198 11.2153 2.13156 11.8197 2.07351C12.8242 2.02046 13.732 2.06976 14.7152 2.25141C15.3265 2.35541 15.3265 2.35541 15.8813 2.17938C16.0391 2.03053 16.1911 1.87714 16.3382 1.72059C18.2094 -0.000444174 21.8769 -0.462586 24.3389 0.48007ZM21.2892 1.33093C21.2412 1.41262 21.1931 1.4943 21.1436 1.57846C21.1916 1.66014 21.2397 1.74182 21.2892 1.82598C22.1183 1.75938 22.9426 1.68489 23.7659 1.57846C23.7659 1.53762 23.7659 1.49677 23.7659 1.4547C23.2068 1.3428 22.6914 1.31784 22.1178 1.3232C21.8843 1.32487 21.8843 1.32487 21.646 1.32658C21.5283 1.32802 21.4106 1.32945 21.2892 1.33093ZM18.8035 2.11218C18.7106 2.15039 18.6178 2.1886 18.5221 2.22797C18.0433 2.43153 17.8042 2.55401 17.5014 2.93984C17.6607 2.97813 17.8199 3.01642 17.984 3.05587C18.3106 3.1358 18.6359 3.21983 18.9583 3.31113C19.3684 3.10577 19.3684 3.10577 19.7869 2.82381C19.9317 2.7308 20.0764 2.63779 20.2256 2.54196C20.3362 2.46906 20.4468 2.39615 20.5608 2.32103C20.4647 2.11682 20.3685 1.91262 20.2694 1.70222C19.6999 1.70222 19.2999 1.89895 18.8035 2.11218ZM24.467 2.43706C24.2816 2.46115 24.0963 2.48524 23.9053 2.51006C23.7631 2.52936 23.621 2.54866 23.4745 2.56855C23.5907 2.64194 23.707 2.71533 23.8268 2.79094C24.2638 3.10773 24.3571 3.33987 24.4943 3.80617C24.4111 3.77937 24.3279 3.75257 24.2422 3.72495C23.2303 3.42976 22.2108 3.30047 21.1436 3.43489C21.0474 3.55741 20.9512 3.67994 20.8522 3.80617C21.0144 3.87254 21.1767 3.93891 21.3439 4.00729C21.7912 4.22072 21.8618 4.28169 22.0814 4.70345C22.1084 4.81576 22.1355 4.92807 22.1633 5.04379C24.4171 4.82247 24.4171 4.82247 26.2425 3.80617C26.4323 3.38005 26.4013 3.21627 26.2061 2.78514C25.7454 2.17008 25.2357 2.33521 24.467 2.43706ZM17.2101 3.0636C16.4997 4.02557 16.3863 4.80473 16.4361 5.9256C16.4394 6.06758 16.4427 6.20957 16.4461 6.35586C16.4546 6.70251 16.4665 7.0488 16.4816 7.39527C16.698 7.33401 16.698 7.33401 16.9187 7.27151C16.9119 7.18759 16.9052 7.10367 16.8982 7.01722C16.8498 5.95661 17.1304 5.17482 17.7928 4.27802C17.9802 3.94798 17.9802 3.94798 17.8355 3.69256C17.6602 3.41983 17.6602 3.41983 17.3558 3.0636C17.3077 3.0636 17.2596 3.0636 17.2101 3.0636ZM11.3298 3.59587C11.0801 3.94854 10.8639 4.3005 10.6566 4.67172C10.3911 5.117 10.0593 5.5258 9.73463 5.94107C9.59669 6.12079 9.45898 6.30063 9.32147 6.48059C9.21816 6.61544 9.21816 6.61544 9.11276 6.75301C8.91014 7.01861 8.70921 7.28508 8.50883 7.55191C7.56604 8.80492 6.57662 10.0243 5.5553 11.2319C5.47206 11.3306 5.38882 11.4293 5.30305 11.531C5.04758 11.8337 4.79167 12.1362 4.53551 12.4386C4.45684 12.5315 4.37818 12.6244 4.29713 12.7201C3.9799 13.0931 3.66395 13.457 3.3154 13.8096C3.03502 14.072 3.03502 14.072 3.07866 14.4497C5.16119 14.3124 7.23332 14.1135 9.30668 13.9005C9.43266 13.8877 9.55865 13.875 9.68845 13.8618C11.4277 13.6849 14.1736 13.2218 15.8989 12.9646C14.5241 12.093 16.2425 9.24271 15.5765 7.83493C14.9324 6.52103 15.2099 3.47125 14.154 3.3463C13.8767 3.31319 13.5997 3.27791 13.3227 3.24248C12.23 3.14714 12.23 3.14714 11.3298 3.59587ZM19.6867 4.42498C19.4916 4.64619 19.2976 4.86806 19.104 5.0902C18.9958 5.21368 18.8876 5.33717 18.7762 5.46439C18.4941 5.75592 18.4941 5.75592 18.5212 6.03389C18.6925 5.98284 18.8638 5.93178 19.0402 5.87919C20.0189 5.60072 21.0191 5.38772 22.0177 5.16755C21.5466 4.8208 21.1283 4.70453 20.5244 4.58742C20.3674 4.55631 20.2104 4.5252 20.0486 4.49315C19.9292 4.47065 19.8098 4.44816 19.6867 4.42498ZM24.0481 6.42838C23.3999 6.60789 22.7551 6.77918 22.0911 6.91182C20.553 7.22441 19.3618 7.71185 18.0635 8.47722C17.6801 8.69766 17.2843 8.89973 16.8872 9.10183C16.6207 9.2555 16.4101 9.42379 16.1903 9.62298C16.9957 11.044 17.2868 11.6618 15.8989 12.8408C15.8989 12.8816 15.8989 12.9225 15.8989 12.9646C16.9905 12.8877 18.0649 12.7499 19.146 12.6023C21.5859 12.2714 24.0339 12.0324 26.4908 11.8136C28.4161 11.6421 28.4161 11.6421 30.3217 11.3557C29.8383 10.6851 29.3066 10.089 28.6736 9.51469C27.5895 8.53104 26.5939 7.51547 25.7338 6.38052C25.6613 6.30697 25.5888 6.23343 25.5141 6.15765C24.9838 6.15765 24.5459 6.28948 24.0481 6.42838ZM23.52 13.6066C18.9182 14.4659 14.2693 15.328 9.56589 15.6512C8.96078 15.6937 8.35644 15.7419 7.75195 15.7903C7.30202 15.8258 6.85207 15.8611 6.40209 15.8962C6.2958 15.9045 6.18951 15.9128 6.08 15.9214C3.11855 16.1508 3.11855 16.1508 2.20455 15.9348C2.20793 16.0287 2.21131 16.1225 2.2148 16.2191C2.23171 17.1266 2.18913 18.0177 2.1002 18.9224C1.73831 22.632 1.58765 26.611 2.35024 30.2912C5.02466 30.2394 7.63612 29.9307 10.2616 29.5008C13.5041 28.9707 16.7569 28.6342 20.0364 28.3123C23.8867 27.9327 27.6968 27.3921 31.4872 26.7021C31.4872 22.0462 31.4872 17.3903 31.4872 12.5933C28.7999 12.5933 26.1344 13.1175 23.52 13.6066Z" fill="white"/>
<path d="M26.8478 20.5228C26.9798 20.8193 26.9798 20.8193 27 21.05C26.1181 21.0978 25.5177 20.9415 24.7079 20.6546C23.1015 20.1293 21.6032 20.0195 19.9857 20.6026C18.7411 21.1198 17.5392 21.6928 16.3573 22.3104C14.0216 23.5008 11.4106 24.4179 8.66423 23.8035C8.14304 23.6431 7.64112 23.4536 7.1413 23.2495C7.04629 23.2121 6.95127 23.1747 6.85338 23.1362C6.58492 23.0204 6.58492 23.0204 6.15217 22.7634C6.01427 22.4036 6.01427 22.4036 6 22.1044C6.69914 21.9165 7.09414 22.0483 7.75951 22.2857C9.63791 22.8947 11.512 22.9241 13.3697 22.2125C13.6472 22.0964 13.9234 21.9779 14.1984 21.8573C14.3469 21.7942 14.4954 21.731 14.6484 21.666C15.8716 21.1403 17.072 20.5776 18.2582 19.992C21.2615 18.5286 24.1109 18.6669 26.8478 20.5228Z" fill="white"/>
</svg>
